<svg width="314" height="57" viewBox="0 0 314 57" fill="none" xmlns="http://www.w3.org/2000/svg">
<path d="M26.6519 0.0424826C11.1128 0.885559 -0.796109 14.1129 0.0416221 29.5993C0.230522 33.0698 1.06004 36.4748 2.49732 39.6425L5.56079 37.2852C0.460487 24.8355 6.45601 10.6178 18.9563 5.54294C28.122 1.81867 38.6347 3.97138 45.583 10.9943L7.77831 26.0223L7.81116 27.6921L10.004 29.853H11.1457L21.182 25.2529L45.0163 15.0705L36.5486 35.509L28.6312 27.7248L28.3109 28.0523L8.42714 46.7309L8.57498 48.2206L10.735 50.1359C22.9478 59.7536 40.6716 57.6827 50.3219 45.5031C59.9722 33.3317 57.8943 15.668 45.6733 6.05042C40.2773 1.8023 33.518 -0.334037 26.6519 0.0424826ZM52.5969 29.5665C51.792 42.9903 40.2198 53.2136 26.7505 52.4114C22.2004 52.1413 17.8229 50.6025 14.1024 47.9832L28.1549 33.8719L38.1666 43.7187L38.684 43.5878L48.901 15.1606C51.6113 19.4578 52.909 24.4999 52.5969 29.5665Z" fill="white"/>
<path d="M121.932 30.9416C119.878 29.4355 117.406 28.617 114.86 28.5924C112.741 28.5924 111.559 29.5337 111.559 30.7042C111.559 34.6986 124.519 31.4082 124.519 40.5674C124.519 44.5618 120.987 47.6149 115.328 47.6149C112.363 47.6722 109.44 46.9437 106.844 45.5031V40.813L107.082 40.5756C109.546 42.1717 112.396 43.0639 115.337 43.1539C118.638 43.1539 119.574 42.2126 119.574 40.5674C119.574 36.1065 106.614 39.3969 106.614 30.7042C106.614 26.9472 109.916 24.1315 114.86 24.1315C117.423 24.0824 119.944 24.729 122.162 26.0059V30.696L121.923 30.9334L121.932 30.9416Z" fill="white"/>
<path d="M150.817 31.6454C148.87 29.7218 146.251 28.625 143.516 28.5923C139.483 28.5923 136.214 31.85 136.214 35.8689C136.214 39.8879 139.483 43.1456 143.516 43.1456C146.259 43.1128 148.87 42.016 150.817 40.0925L151.055 40.3299V45.2656C148.862 46.8371 146.218 47.6638 143.516 47.6147C136.214 47.6147 131.262 42.3516 131.262 35.8689C131.262 29.3863 136.214 24.1232 143.516 24.1232C146.218 24.0741 148.862 24.9008 151.055 26.4723V31.408L150.817 31.6454Z" fill="white"/>
<path d="M179.669 44.5611C177.041 46.411 173.928 47.4669 170.717 47.6142C164.031 47.6961 158.545 42.3511 158.463 35.6884C158.463 29.2957 162.939 24.1309 169.772 24.1309C175.661 24.1309 179.669 29.2957 179.669 35.6393C179.677 36.0403 179.603 36.4414 179.431 36.8097L178.963 37.0471H163.268C163.834 40.6732 167.037 43.2924 170.717 43.1533C174.002 43.0632 177.123 41.7209 179.431 39.3963L179.669 39.6336V44.5611ZM174.963 33.2901C174.651 30.6545 172.441 28.6491 169.78 28.6C166.84 28.5099 164.22 30.458 163.465 33.2901H174.963Z" fill="white"/>
<path d="M192.022 24.8348L192.26 25.0722V25.7761C194.051 24.7366 196.079 24.1718 198.149 24.1309C205.22 24.1309 208.752 28.1252 208.752 34.4606V46.6729L208.514 46.9103H204.276L204.038 46.6729V34.698C204.038 30.941 202.157 28.5918 198.149 28.5918C195.948 28.5263 193.812 29.3776 192.26 30.941V46.6729L192.022 46.9103H187.784L187.546 46.6729V25.064L187.784 24.8266H192.022V24.8348Z" fill="white"/>
<path d="M237.596 14.0312L237.834 14.2686V46.6739L237.596 46.9112H233.358L233.12 46.6739V45.9699C231.428 47.034 229.473 47.607 227.469 47.6152C220.964 47.5579 215.741 42.2457 215.798 35.763C215.856 29.3621 221.046 24.1891 227.469 24.1318C229.473 24.14 231.428 24.7129 233.12 25.777V14.2686L233.358 14.0312H237.596ZM233.12 30.9419C231.584 29.5013 229.58 28.6664 227.469 28.5927C223.461 28.5927 220.636 31.6458 220.636 35.8694C220.636 40.093 223.461 43.146 227.469 43.146C229.596 43.1788 231.649 42.3275 233.12 40.7969V30.9337V30.9419Z" fill="white"/>
<path d="M266.448 44.5611C263.82 46.411 260.707 47.4669 257.496 47.6142C250.811 47.6961 245.324 42.3511 245.242 35.6884C245.242 29.2957 249.718 24.1309 256.552 24.1309C262.44 24.1309 266.448 29.2957 266.448 35.6393C266.456 36.0403 266.383 36.4414 266.21 36.8097L265.742 37.0471H250.047C250.614 40.665 253.817 43.2924 257.496 43.1533C260.781 43.0632 263.902 41.7209 266.21 39.3963L266.448 39.6336V44.5611ZM261.742 33.2901C261.43 30.6545 259.221 28.6491 256.56 28.6C253.619 28.5099 251 30.458 250.244 33.2901H261.742Z" fill="white"/>
<path d="M278.464 24.8351L278.703 25.0725V25.7764C280.493 24.7369 282.522 24.1721 284.591 24.1312C286.061 24.1066 287.515 24.4259 288.829 25.0725L289.067 29.7626L288.829 30C287.63 29.0505 286.127 28.5512 284.591 28.5921C282.382 28.5267 280.255 29.3779 278.703 30.9413V46.6733L278.464 46.9106H274.226L273.988 46.6733V25.0643L274.226 24.8269H278.464V24.8351Z" fill="white"/>
<path d="M310.511 30.9412C308.458 29.4351 305.986 28.6166 303.44 28.5921C301.321 28.5921 300.138 29.5334 300.138 30.7039C300.138 34.6982 313.098 31.4078 313.098 40.567C313.098 44.5614 309.567 47.6145 303.908 47.6145C300.943 47.6718 298.019 46.9433 295.424 45.5027V40.8126L295.662 40.5752C298.126 42.1713 300.976 43.0635 303.908 43.1617C307.209 43.1617 308.146 42.2204 308.146 40.5752C308.146 36.1143 295.186 39.4047 295.186 30.712C295.186 26.955 298.487 24.1393 303.431 24.1393C305.994 24.0902 308.515 24.7368 310.733 26.0137V30.7039L310.495 30.933L310.511 30.9412Z" fill="white"/>
<path d="M82.9852 8.45703L67.4297 46.6738L67.6679 46.9111H72.3904L72.6121 46.6656L83.0016 20.6775L93.3336 46.6574L93.58 46.903H98.3107L98.5325 46.6656L82.9852 8.45703Z" fill="white"/>
</svg>
