<svg width="189" height="130" viewBox="0 0 189 130" fill="none" xmlns="http://www.w3.org/2000/svg">
<g clip-path="url(#clip0_268_1340)">
<path d="M0 126.292C0 126.462 0.136587 126.598 0.306676 128.66H188.243C188.413 126.598 188.55 126.462 188.55 126.292C188.55 126.121 188.413 125.985 188.243 128.047H0.306676C0.136587 125.985 0 126.121 0 126.292Z" fill="#3F3D56"/>
<path d="M108.763 76.1378L111.173 122.248L117.195 121.526L120.494 73.8594L108.763 76.1378Z" fill="#FFB6B6"/>
<path d="M117.986 119.459C117.986 119.459 121.336 128.222 116.955 128.738C112.574 129.253 99.9473 131.573 99.9473 128.222C99.9473 124.872 106.39 123.583 106.39 123.583C106.39 123.583 109.482 118.686 110.771 119.201C112.059 119.717 113.09 122.552 115.409 121.779C117.728 121.005 117.986 119.459 117.986 119.459Z" fill="#2F2E41"/>
<path d="M109.095 15.1992H101.622V24.736H109.095V15.1992Z" fill="#FFB6B6"/>
<path d="M105.165 20.0964C109.897 20.0964 113.734 16.2594 113.734 11.5262C113.734 6.79305 109.897 2.95605 105.165 2.95605C100.433 2.95605 96.5967 6.79305 96.5967 11.5262C96.5967 16.2594 100.433 20.0964 105.165 20.0964Z" fill="#FFB6B6"/>
<path d="M114.636 46.516L115.667 38.0103L120.563 38.268L121.594 48.3202L125.65 66.9356L125.66 66.9331L125.656 66.9346L126.834 72.0181C127.554 72.9109 128.049 73.9633 128.279 75.087C128.892 77.8912 127.943 80.4801 126.159 80.8705C124.376 81.2609 122.433 79.3046 121.82 76.5011C121.56 75.3837 121.571 74.2203 121.852 73.1083L120.752 69.2604L114.636 46.516Z" fill="#FFB6B6"/>
<path d="M101.107 21.9009H110.127L118.888 26.5404L115.796 45.0984L119.404 56.6971C119.404 56.6971 100.076 62.6253 94.1494 60.0478L96.7264 45.0984L94.9225 25.2516C94.9225 25.2516 101.107 21.9009 101.107 21.9009Z" fill="#C8B65E"/>
<path d="M117.213 26.6692C117.213 26.6692 120.305 25.6382 120.821 27.4425C121.336 29.2467 122.624 40.0722 122.624 40.0722L114.894 40.33C114.894 40.33 117.213 26.6692 117.213 26.6692Z" fill="#AA0000"/>
<path d="M75.0004 60.5844C74.688 60.5844 74.3835 60.5605 74.0908 60.5122C72.8982 60.3151 72.0409 59.7359 71.6767 58.8814C71.3125 58.0268 71.4883 57.0073 72.1719 56.0103C72.8433 55.0312 73.9281 54.1871 75.2265 53.6336C76.2784 53.1685 77.441 52.9571 78.5887 53.0197L89.2601 47.4646L90.0339 39.4666L95.9392 37.0503L96.7601 47.9296C96.8978 49.7548 95.8541 51.451 94.1635 52.1507L80.6949 57.9495C79.9446 58.8241 78.9859 59.5169 77.9205 59.954C76.9471 60.3691 75.9382 60.5844 75.0004 60.5844Z" fill="#FFB6B6"/>
<path d="M97.1122 25.1225C97.1122 25.1225 91.9583 23.3182 90.4121 28.9887C88.8659 34.6592 89.3813 39.8142 89.3813 39.8142L98.143 39.041C98.143 39.041 97.1122 25.1225 97.1122 25.1225Z" fill="#C8B65E"/>
<path d="M68.874 46.3871C68.874 48.9543 70.9562 51.0369 73.5229 51.0369C74.9015 51.0369 76.1384 50.4364 76.989 49.4852C76.989 49.4852 76.9915 49.4826 76.994 49.4826C77.5482 48.8614 77.9372 48.0882 78.0917 47.2326C78.1124 47.145 78.1252 47.0547 78.1355 46.962C78.1589 46.7841 78.1693 46.6036 78.1718 46.4181V46.3871C78.1718 43.8199 76.0921 41.7373 73.5229 41.7373C71.8144 41.7373 70.3195 42.6601 69.513 44.0364C69.3841 44.2504 69.2759 44.4772 69.1883 44.7143C68.9848 45.2323 68.874 45.7969 68.874 46.3871Z" fill="#C8B65E"/>
<path d="M69.1885 44.714C69.4384 44.6393 69.7167 44.5232 70.021 44.3609C70.1264 44.3068 70.2089 44.2554 70.2837 44.2089C70.4385 44.1162 70.5208 44.0671 70.6755 44.0465C71.0593 43.9977 71.3917 44.2063 71.5337 44.2939C71.969 44.5698 72.1648 44.9564 72.3531 45.3327C72.456 45.5389 72.6442 45.9746 72.7268 46.5648C72.7756 46.9074 72.7603 47.0907 72.7447 47.2555C72.7293 47.441 72.7165 47.6162 72.7884 47.9049C72.9895 48.686 73.5437 49.1887 73.8555 49.418C74.3734 49.7996 74.9172 49.9903 75.4736 49.9903C75.5459 49.9903 75.6156 49.9876 75.685 49.9825C75.9686 49.9594 76.4994 49.8587 76.9891 49.4849C76.9891 49.4849 76.9916 49.4824 76.9941 49.4824C77.5483 48.8612 77.9374 48.0879 78.0919 47.2324C78.0919 47.2117 78.0894 47.1936 78.0869 47.1755C78.0765 47.1241 78.0609 47.0159 78.0869 46.9771C78.0919 46.9771 78.1022 46.9719 78.1357 46.9618C78.1591 46.7838 78.1694 46.6034 78.1719 46.4179C77.8601 46.4901 77.7544 46.5724 77.6875 46.6524C77.5148 46.8689 77.5586 47.1395 77.574 47.2399C77.6512 47.7426 77.2571 48.5828 76.7521 49.016C76.3293 49.3742 75.8345 49.4514 75.6412 49.4671C74.881 49.5315 74.3399 49.1345 74.162 49.0032C73.9043 48.8149 73.4483 48.4026 73.2885 47.7788C73.2369 47.5724 73.2447 47.4642 73.26 47.2993C73.2757 47.1163 73.2935 46.8921 73.2369 46.4926C73.1443 45.8301 72.9304 45.3378 72.8144 45.1007C72.6133 44.7037 72.3659 44.2089 71.8067 43.8585C71.6341 43.75 71.1778 43.4666 70.6111 43.5363C70.3481 43.5698 70.1936 43.6624 70.0157 43.7681C69.9487 43.8094 69.874 43.8557 69.7811 43.9048C69.6858 43.9536 69.5957 44.0002 69.5131 44.0362C69.3843 44.2501 69.2761 44.4769 69.1885 44.714V44.714Z" fill="#F2F2F2"/>
<path d="M125.151 81.8511L121.887 81.0545L128.286 59.826L127.283 55.4302L134.302 57.1837L130.9 60.9523L125.151 81.8511Z" fill="#3F3D56"/>
<path d="M142.522 48.212C144.712 41.5147 142.54 34.794 137.67 33.201C132.8 31.608 127.077 35.7458 124.887 42.4431C122.697 49.1403 124.87 55.861 129.739 57.454C134.609 59.047 140.332 54.9092 142.522 48.212ZM141.542 47.8915C139.596 53.8447 134.509 57.5226 130.18 56.1066C125.851 54.6906 123.92 48.7168 125.867 42.7636C127.814 36.8104 132.901 33.1324 137.229 34.5484C141.558 35.9644 143.489 41.9383 141.542 47.8915Z" fill="#3F3D56"/>
<path d="M113.466 11.5314L114.953 15.4499L118.554 21.9112C122.297 28.6282 123.929 36.3177 123.237 43.9765V43.9765L113.678 43.5063L112.572 40.3735C109.782 32.4734 108.756 24.1021 109.102 15.7307C109.267 11.725 107.519 8.68312 103.684 6.69336L113.466 11.5314V11.5314Z" fill="#2F2E41"/>
<path d="M114.507 14.426L110.384 10.5598C110.384 10.5598 104.973 8.75552 102.653 7.20902C101.186 6.23053 98.9962 7.31572 97.5858 8.24487C96.6803 8.84135 95.5228 8.89569 94.571 8.37641C93.888 8.0038 93.5886 7.18139 93.8721 6.45677V6.45676C94.9243 3.76718 97.766 2.23228 100.592 2.82727H100.592L102.625 1.37439C104.723 -0.124037 107.45 -0.418897 109.819 0.596624L111.153 1.1683C112.499 1.74568 113.644 2.71122 114.44 3.9418V3.9418C115.475 5.54204 115.851 7.48089 115.489 9.35218L114.507 14.426L114.507 14.426Z" fill="#C8B65E"/>
<path d="M91.4637 76.8056L89.0889 122.918L95.1536 122.823L103.368 75.7539L91.4637 76.8056Z" fill="#FFB6B6"/>
<path d="M118.581 54.7446C118.581 54.7446 123.735 62.7349 123.22 74.0759C123.22 74.0759 108.789 83.0971 90.75 77.6844C90.75 77.6844 92.5539 61.7039 94.8732 59.1264L118.581 54.7446V54.7446Z" fill="#2F2E41"/>
<path d="M96.3396 119.459C96.3396 119.459 99.6897 128.222 95.3088 128.738C90.928 129.253 78.3008 131.573 78.3008 128.222C78.3008 124.872 84.7432 123.583 84.7432 123.583C84.7432 123.583 87.8356 118.686 89.1241 119.201C90.4126 119.717 91.4434 122.552 93.7626 121.779C96.0819 121.005 96.3396 119.459 96.3396 119.459Z" fill="#2F2E41"/>
</g>
<defs>
<clipPath id="clip0_268_1340">
<rect width="188.55" height="130" fill="white"/>
</clipPath>
</defs>
</svg>
