<svg width="162" height="130" viewBox="0 0 162 130" fill="none" xmlns="http://www.w3.org/2000/svg">
<g clip-path="url(#clip0_268_1086)">
<path d="M112.652 126.534L109.658 126.533L108.233 114.992H112.653L112.652 126.534Z" fill="#FFB6B6"/>
<path d="M112.572 125.556L109.375 124.256L109.283 124.219L107.518 125.556C106.521 125.556 105.566 125.952 104.861 126.656C104.156 127.36 103.76 128.315 103.76 129.311V129.433H113.415V125.556H112.572Z" fill="#2F2E41"/>
<path d="M139.709 122.643L137.029 123.978L130.602 114.283L134.557 112.313L139.709 122.643Z" fill="#FFB6B6"/>
<path d="M139.957 121.427L139.272 121.767L139.201 121.803L135.765 122.068L135.661 122.075L134.678 124.057C134.236 124.277 133.842 124.582 133.518 124.954C133.194 125.326 132.947 125.758 132.791 126.226C132.634 126.694 132.571 127.188 132.606 127.68C132.641 128.171 132.772 128.652 132.992 129.093L133.046 129.201L141.687 124.899L139.957 121.427Z" fill="#2F2E41"/>
<path d="M110.621 64.4971L127.134 65.0746L127.249 64.9075C127.249 64.9075 128.657 68.1915 128.657 71.0063C128.657 71.9422 128.006 78.0634 128.337 79.2215C128.378 79.3655 128.095 79.7184 128.188 80.3892C128.248 80.8244 128.581 80.4896 128.657 81.0929C128.712 81.5258 128.126 81.7649 128.188 82.2657C128.255 82.8129 129.06 84.5854 129.133 85.194C129.905 91.6743 130.933 101.062 130.933 101.062C130.933 101.062 135.061 112.111 135.934 112.291C137.4 112.592 138.39 115.255 137.577 115.809C137.191 116.073 132.191 117.847 132.191 117.847C131.917 117.897 131.057 117.466 131.605 116.448C131.705 116.26 131.104 116.738 131.005 116.513C130.898 116.274 131.107 115.324 130.985 115.06C129.893 112.68 128.215 109.383 126.626 107.69C124.277 105.188 122.789 102.002 122.38 98.5967L118.734 78.3943L117.484 84.0595L116.45 85.0806L116.734 87.4613L116.685 89.772L114.103 99.3894C114.103 99.3894 113.716 117.35 114.338 117.92C114.674 118.229 116.104 122.034 113.399 122.377L108.483 121.998C108.483 121.998 107.821 120.604 108.152 120.108C108.483 119.611 108.464 119.747 108.06 118.934C107.656 118.122 107.821 116.746 107.821 116.746C107.177 110.278 106.923 103.777 107.06 97.2782C107.307 86.6046 108.8 74.3426 108.8 74.0927C108.813 73.8373 108.765 73.5825 108.663 73.3484V72.6747L109.297 70.2876L110.621 64.4971Z" fill="#2F2E41"/>
<path d="M133.858 66.5147C137.46 66.5147 140.379 63.5972 140.379 59.9983C140.379 56.3994 137.46 53.4819 133.858 53.4819C130.257 53.4819 127.337 56.3994 127.337 59.9983C127.337 63.5972 130.257 66.5147 133.858 66.5147Z" fill="#C8B65E"/>
<path d="M132.968 63.39C132.856 63.39 132.745 63.3638 132.644 63.3135C132.543 63.2632 132.456 63.1901 132.388 63.1L130.609 60.7297C130.552 60.6535 130.51 60.5668 130.487 60.4746C130.463 60.3824 130.458 60.2865 130.471 60.1922C130.485 60.098 130.517 60.0073 130.565 59.9254C130.614 59.8435 130.678 59.772 130.754 59.7149C130.83 59.6578 130.917 59.6162 131.009 59.5926C131.102 59.569 131.198 59.5638 131.292 59.5772C131.386 59.5907 131.477 59.6226 131.559 59.6711C131.641 59.7196 131.712 59.7837 131.77 59.8599L132.934 61.4105L135.923 56.9298C135.976 56.8505 136.044 56.7824 136.123 56.7293C136.202 56.6763 136.291 56.6393 136.384 56.6206C136.478 56.6019 136.574 56.6017 136.668 56.6202C136.761 56.6387 136.85 56.6754 136.929 56.7282C137.009 56.781 137.077 56.849 137.13 56.9281C137.183 57.0073 137.22 57.0961 137.238 57.1895C137.257 57.2829 137.257 57.379 137.238 57.4725C137.22 57.5659 137.183 57.6547 137.13 57.7339L133.572 63.0672C133.508 63.1637 133.421 63.2433 133.319 63.2995C133.218 63.3556 133.104 63.3866 132.988 63.3898C132.982 63.3899 132.975 63.39 132.968 63.39Z" fill="white"/>
<path d="M137.082 66.8874C137.146 66.6209 137.15 66.3438 137.095 66.0755C137.039 65.8072 136.926 65.5542 136.762 65.3344C136.599 65.1147 136.389 64.9334 136.147 64.8035C135.906 64.6735 135.639 64.598 135.366 64.5823L132.024 53.2061L129.764 55.8274L133.36 66.479C133.364 66.9402 133.537 67.3838 133.847 67.7259C134.156 68.0681 134.581 68.2848 135.039 68.3352C135.498 68.3855 135.96 68.2659 136.336 67.9991C136.712 67.7323 136.978 67.3367 137.082 66.8874Z" fill="#FFB8B8"/>
<path d="M134.725 61.3373L134.291 59.7469L134.789 58.7969L134.751 58.6866L134.601 58.2597L133.821 57.6357L134.101 56.8406L133.115 54.0421L132.873 53.5566L127.213 42.201L125.857 39.4776L125.542 38.985L124.563 37.451L123.225 35.3562C123.012 35.0214 122.735 34.7323 122.409 34.5055C122.084 34.2788 121.716 34.1191 121.328 34.0356C121.203 34.0081 121.076 33.9885 120.948 33.977L120.856 33.9699C120.628 33.9573 120.399 33.9707 120.173 34.0098H120.169C119.771 34.0787 119.393 34.2288 119.056 34.4508C118.791 34.6222 118.555 34.8343 118.356 35.0794C117.899 35.6459 117.662 36.3579 117.687 37.085L117.73 38.2297L117.772 39.2712L119.758 42.8602L119.887 43.0947L119.889 43.1018L126 54.15L127.842 57.4809L128.122 57.9876L129.361 58.8086L129.03 59.6343L129.127 60.9197L130.181 61.7149L131.709 63.2654L131.77 63.3921L132.239 63.1552L132.284 63.1317L132.39 63.1012L133.843 62.6626L134.725 62.3975L134.753 62.3882L134.995 62.3272L134.725 61.3373Z" fill="#E6E6E6"/>
<path d="M159.845 112.98C159.402 112.418 158.801 112.001 158.119 111.783C157.437 111.565 156.706 111.557 156.019 111.758L155.868 111.803L154.521 117.06C154.319 116.276 153.887 114.508 153.615 112.776L153.591 112.633L153.458 112.692C152.049 113.314 150.725 114.112 149.516 115.066C147.375 116.782 145.634 118.943 144.413 121.4C143.193 123.856 142.522 126.549 142.448 129.29L142.446 129.391L142.443 129.454L142.622 129.391L146.45 128.024C148.146 128.173 149.853 127.942 151.447 127.348C153.042 126.754 154.483 125.811 155.667 124.589C157.214 122.959 158.275 120.862 159.3 118.833C159.601 118.242 159.908 117.632 160.223 117.046C160.574 116.408 160.725 115.68 160.658 114.955C160.591 114.23 160.308 113.543 159.845 112.98Z" fill="#F2F2F2"/>
<path d="M61.5935 25.7185H61.124V7.64648H95.0816V8.11563H61.5935V25.7185Z" fill="#3F3D56"/>
<path d="M100.289 13.0327C103.89 13.0327 106.81 10.1153 106.81 6.51637C106.81 2.91748 103.89 0 100.289 0C96.6872 0 93.7676 2.91748 93.7676 6.51637C93.7676 10.1153 96.6872 13.0327 100.289 13.0327Z" fill="#C8B65E"/>
<path d="M99.3999 9.90763C99.2873 9.90763 99.1762 9.88142 99.0755 9.83108C98.9748 9.78075 98.8872 9.70766 98.8197 9.61763L97.0406 7.24723C96.9834 7.17108 96.9418 7.08442 96.9182 6.99221C96.8946 6.9 96.8893 6.80404 96.9028 6.70981C96.9163 6.61558 96.9482 6.52493 96.9967 6.44302C97.0453 6.36112 97.1095 6.28957 97.1857 6.23246C97.2619 6.17535 97.3486 6.1338 97.4409 6.11018C97.5332 6.08655 97.6292 6.08133 97.7235 6.09479C97.8178 6.10826 97.9085 6.14015 97.9905 6.18865C98.0725 6.23715 98.1441 6.30131 98.2012 6.37746L99.3651 7.92811L102.355 3.44735C102.407 3.36806 102.475 3.29993 102.554 3.24688C102.634 3.19383 102.722 3.15689 102.816 3.13817C102.909 3.11944 103.006 3.11931 103.099 3.13777C103.193 3.15623 103.282 3.19293 103.361 3.24577C103.44 3.2986 103.508 3.36653 103.561 3.44568C103.614 3.52484 103.651 3.61365 103.67 3.70706C103.689 3.80046 103.689 3.89662 103.67 3.99005C103.651 4.08347 103.615 4.17232 103.562 4.25152L100.004 9.58482C99.9392 9.68128 99.8526 9.7609 99.7511 9.81703C99.6496 9.87315 99.5361 9.90414 99.4201 9.90739C99.4134 9.90751 99.4067 9.90763 99.3999 9.90763Z" fill="white"/>
<path d="M38.5886 69.5938H38.1191V87.6658H72.0767V87.1966H38.5886V69.5938Z" fill="#3F3D56"/>
<path d="M77.2839 94.1944C80.8855 94.1944 83.8052 91.2769 83.8052 87.678C83.8052 84.0791 80.8855 81.1616 77.2839 81.1616C73.6824 81.1616 70.7627 84.0791 70.7627 87.678C70.7627 91.2769 73.6824 94.1944 77.2839 94.1944Z" fill="#C8B65E"/>
<path d="M76.3941 91.0692C76.2815 91.0692 76.1704 91.043 76.0697 90.9927C75.969 90.9424 75.8814 90.8693 75.8138 90.7793L74.0347 88.4088C73.9776 88.3327 73.936 88.246 73.9123 88.1538C73.8887 88.0616 73.8835 87.9657 73.8969 87.8714C73.9104 87.7772 73.9423 87.6866 73.9909 87.6046C74.0394 87.5227 74.1036 87.4512 74.1798 87.3941C74.256 87.337 74.3428 87.2954 74.435 87.2718C74.5273 87.2482 74.6233 87.2429 74.7176 87.2564C74.8119 87.2699 74.9027 87.3018 74.9846 87.3503C75.0666 87.3988 75.1382 87.4629 75.1953 87.5391L76.3593 89.0897L79.3487 84.609C79.4015 84.5297 79.4695 84.4616 79.5486 84.4085C79.6278 84.3555 79.7166 84.3185 79.8101 84.2998C79.9035 84.2811 79.9998 84.2809 80.0933 84.2994C80.1868 84.3179 80.2758 84.3546 80.3551 84.4074C80.4344 84.4602 80.5025 84.5282 80.5555 84.6073C80.6085 84.6865 80.6454 84.7753 80.6641 84.8687C80.6827 84.9621 80.6828 85.0583 80.6642 85.1517C80.6456 85.2451 80.6088 85.3339 80.5559 85.4131L76.9977 90.7465C76.9333 90.8429 76.8468 90.9225 76.7453 90.9787C76.6437 91.0348 76.5302 91.0658 76.4143 91.069C76.4075 91.0691 76.4008 91.0692 76.3941 91.0692Z" fill="white"/>
<path d="M128.891 70.2583C128.898 70.7522 128.819 71.2436 128.657 71.7103L128.621 71.7032C124.452 72.4238 120.733 72.5417 119.012 69.9844C116.768 67.1283 113.68 67.1607 110.236 68.4145L109.828 67.9736L109.133 67.2253L109.771 66.5028L109.133 65.1094L109.666 63.39L110.346 63.2657L110.163 61.7856L109.877 60.92L110.717 59.9981L111.431 57.697L110.917 52.8813C110.213 46.2803 111.576 39.6237 114.818 33.8294L116.769 32.0795L117.579 31.3524L118.666 29.3257L119.814 29.4594L122.922 29.8183L123.027 30.0716L123.79 31.9106L127.809 36.2244L127.628 38.0447L127.549 38.8469L127.49 39.4239L127.213 42.2013L126.084 53.5474L125.999 54.1503L125.091 60.6737C126.567 62.0999 127.873 64.8467 128.499 67.3566C128.57 67.6358 128.37 67.9196 128.422 68.1917C128.495 68.5764 128.812 68.9423 128.847 69.3012C128.88 69.6191 128.894 69.9387 128.891 70.2583Z" fill="#E6E6E6"/>
<path d="M120.931 28.599C123.913 28.599 126.33 26.1839 126.33 23.2048C126.33 20.2256 123.913 17.8105 120.931 17.8105C117.95 17.8105 115.533 20.2256 115.533 23.2048C115.533 26.1839 117.95 28.599 120.931 28.599Z" fill="#FFB6B6"/>
<path d="M127.439 21.7334C127.12 20.7381 126.243 19.8959 125.203 19.7859C125.282 19.1248 125.178 18.4548 124.902 17.8488C124.626 17.2428 124.189 16.7241 123.639 16.3491C123.088 15.974 122.445 15.7571 121.78 15.7219C121.115 15.6867 120.452 15.8345 119.865 16.1494C119.741 15.9996 119.579 15.8845 119.397 15.8153C119.215 15.7461 119.018 15.7251 118.825 15.7543C118.44 15.8178 118.077 15.9768 117.769 16.2169C117.004 16.7759 116.405 17.5316 116.036 18.4036C115.667 19.2757 115.541 20.2314 115.673 21.1691C115.67 20.6934 115.881 21.6136 116.486 21.695C116.99 21.7963 117.469 21.994 117.898 22.2772C118.327 22.5603 118.805 22.7606 119.308 22.8676C119.815 22.9418 119.946 24.974 119.584 26.283C119.515 26.531 119.48 26.8639 119.709 26.9821C119.991 27.1277 120.276 26.7616 120.591 26.7259C120.732 26.7237 120.869 26.7764 120.972 26.873C121.076 26.9696 121.137 27.1024 121.144 27.2436C121.145 27.3852 121.111 27.5249 121.047 27.6509C120.982 27.7769 120.888 27.8857 120.773 27.9682C120.541 28.1308 120.285 28.255 120.013 28.3359L120.104 28.465C120.184 28.6126 120.312 28.7279 120.468 28.7912C120.623 28.8545 120.796 28.8618 120.956 28.8119C121.317 29.247 125.037 28.0389 125.218 27.2447C125.998 26.5433 126.645 25.7081 127.129 24.7787C127.613 23.839 127.724 22.7513 127.439 21.7334Z" fill="#2F2E41"/>
<path d="M131.804 38.1621C131.729 38.7908 131.14 39.2599 130.52 39.3913C130.205 39.4518 129.882 39.4574 129.565 39.4077C129.255 39.3617 128.949 39.2935 128.649 39.2036C128.278 39.098 127.911 38.9792 127.548 38.8471C126.511 38.477 125.511 38.0097 124.562 37.4514C123.845 37.0327 123.158 36.564 122.506 36.0486C122.168 35.7812 121.84 35.5021 121.522 35.2112L121.919 35.3989C121.565 34.9227 121.21 34.4465 120.856 33.9703C120.513 33.5106 120.171 33.0508 119.83 32.5911C119.809 32.5629 119.792 32.5441 119.785 32.5348V32.5324C119.628 32.3236 119.473 32.1149 119.318 31.9061C118.851 31.2798 118.391 30.3603 118.929 29.795C119.043 29.6849 119.182 29.6035 119.335 29.5574C119.487 29.5113 119.648 29.5019 119.804 29.5299C119.973 29.5518 120.136 29.6042 120.285 29.6847C120.696 29.9504 121.044 30.3017 121.307 30.7145C121.673 30.182 122.384 29.985 123.027 30.0718C123.062 30.0741 123.095 30.0788 123.128 30.0835C123.797 30.1984 124.086 29.8372 124.666 30.1914C124.936 30.3556 125.1 31.2001 125.37 31.3643C125.523 31.4581 126.088 31.5988 126.243 31.695C126.548 31.8827 126.471 32.584 126.778 32.7717C127.006 32.9101 127.616 32.5371 127.844 32.6755C128.084 32.8233 128.417 33.7991 128.656 33.9445C129.133 34.2377 129.516 33.7029 129.992 33.9938C130.605 34.3715 131.257 34.7913 131.516 35.4622C131.743 36.0533 131.45 36.8626 130.884 37.0315C131.154 37.0637 131.402 37.1997 131.573 37.4107C131.745 37.6217 131.828 37.8912 131.804 38.1621Z" fill="#E6E6E6"/>
<path opacity="0.2" d="M127.548 38.8467L127.49 39.4237C126.824 39.3597 126.17 39.2123 125.541 38.9851C124.714 38.7075 123.996 38.1744 123.492 37.4627C123.173 36.9842 122.839 36.508 122.506 36.0483C121.952 35.2789 121.403 34.5611 120.947 33.977C120.391 33.2709 119.973 32.7596 119.83 32.5907C119.809 32.5625 119.792 32.5438 119.785 32.5344L119.778 32.5273L119.785 32.532C122.575 36.0596 125.209 38.0938 127.628 38.0444C127.628 38.0444 127.912 38.978 127.548 38.8467Z" fill="black"/>
<path d="M102.024 10.5979C101.955 10.8631 101.945 11.1401 101.995 11.4094C102.045 11.6788 102.154 11.9339 102.313 12.1568C102.473 12.3797 102.679 12.5649 102.918 12.6995C103.156 12.8341 103.422 12.9148 103.695 12.9358L106.816 24.3745L109.127 21.7974L105.737 11.0782C105.742 10.6171 105.577 10.1701 105.275 9.82207C104.972 9.47404 104.552 9.24912 104.094 9.18991C103.636 9.1307 103.173 9.24133 102.791 9.50083C102.41 9.76033 102.137 10.1507 102.024 10.5979Z" fill="#FFB8B8"/>
<path d="M120.344 39.8486L120.323 38.8071L118.356 35.0798L118.283 34.9437L118.278 34.9367L116.769 32.0796L109.485 18.2808L108.703 17.9936L108.742 16.8728L108.703 15.6479L107.763 15.0184L107.363 14.2593L106.795 14.4211H106.792L106.776 14.4258L104.292 15.1225H104.29L103.773 15.4134L103.304 16.8208L103.201 17.4871L103.304 18.6974L104.478 18.9319L104.089 20.1729L105.269 23.743C106.745 29.9825 108.762 35.3683 112.243 38.4435L112.529 38.9126L114.795 42.6165C115.104 43.1232 115.556 43.527 116.095 43.7771C116.633 44.0271 117.234 44.1122 117.821 44.0216H117.823C118.221 43.9598 118.603 43.8177 118.945 43.6041C119.26 43.4097 119.536 43.1574 119.757 42.8605C120.162 42.3237 120.376 41.6675 120.365 40.9956L120.344 39.8486Z" fill="#E6E6E6"/>
<path d="M161.498 129.928L97.7063 130C97.6321 130 97.561 129.97 97.5086 129.918C97.4562 129.866 97.4268 129.795 97.4268 129.721C97.4268 129.646 97.4562 129.575 97.5086 129.523C97.561 129.471 97.6321 129.441 97.7063 129.441L161.498 129.369C161.572 129.369 161.644 129.399 161.696 129.451C161.748 129.503 161.778 129.574 161.778 129.648C161.778 129.723 161.748 129.794 161.696 129.846C161.644 129.898 161.572 129.928 161.498 129.928Z" fill="#CACACA"/>
<path d="M19.6315 36.0555C19.6276 32.5295 20.9758 29.1359 23.3988 26.5726L15.0833 15.136C14.741 14.6648 14.3012 14.2729 13.7936 13.9869C13.2861 13.7009 12.7229 13.5276 12.1423 13.4787C11.5617 13.4298 10.9773 13.5065 10.4291 13.7035C9.88078 13.9006 9.38145 14.2134 8.96506 14.6207C6.11653 17.3954 3.85509 20.7139 2.31506 24.379C0.77502 28.0441 -0.0122051 31.9811 0.000143046 35.9561C0.000166239 37.4572 0.112159 38.9562 0.335186 40.4407C0.422681 41.0276 0.637239 41.5883 0.963901 42.0838C1.29056 42.5793 1.72147 42.9977 2.22656 43.3097C2.72595 43.6186 3.28676 43.8148 3.86987 43.8848C4.45298 43.9548 5.04435 43.8969 5.60274 43.715L19.9611 39.0532C19.7426 38.0689 19.6321 37.0637 19.6315 36.0555Z" fill="#F2F2F2"/>
<path d="M20.3955 40.5869L5.46802 45.4335C4.91557 45.612 4.40797 45.907 3.9796 46.2986C3.55123 46.6902 3.21211 47.1693 2.98522 47.7033C2.75833 48.2373 2.64896 48.8139 2.66454 49.3938C2.68013 49.9738 2.82028 50.5436 3.07552 51.0647C5.20131 55.3743 8.33498 59.1085 12.2112 61.9514C16.0874 64.7942 20.5921 66.6619 25.3438 67.3964C25.9225 67.4852 26.5136 67.448 27.0765 67.2871C27.6395 67.1263 28.1609 66.8456 28.6051 66.4645C29.0488 66.0844 29.4048 65.6128 29.6488 65.0822C29.8928 64.5516 30.019 63.9745 30.0188 63.3906V49.4588C27.8079 48.8856 25.7729 47.7759 24.0941 46.2283C22.4154 44.6807 21.1449 42.7429 20.3955 40.5869Z" fill="#E6E6E6"/>
<path d="M65.2853 49.2919C65.0332 48.6939 64.6553 48.1571 64.1771 47.7181C63.6989 47.2791 63.1317 46.9482 62.5141 46.7478L46.2338 41.4619C45.2834 43.6953 43.7625 45.6399 41.8233 47.101C39.8841 48.5621 37.5948 49.4885 35.1846 49.7872V66.7371C35.1849 67.3878 35.326 68.0306 35.5981 68.6217C35.8703 69.2127 36.2671 69.738 36.7614 70.1616C37.2556 70.5851 37.8357 70.8969 38.4618 71.0755C39.0879 71.2541 39.7452 71.2954 40.3887 71.1965C45.6783 70.3789 50.6928 68.2998 55.0078 65.1352C59.3227 61.9706 62.8111 57.8137 65.1776 53.0164C65.4621 52.4397 65.619 51.8085 65.6375 51.1658C65.6561 50.5231 65.536 49.884 65.2853 49.2919Z" fill="#3F3D56"/>
<path d="M61.2411 10.4133C60.7776 9.95993 60.2218 9.61167 59.6114 9.39227C59.0011 9.17287 58.3506 9.08748 57.7043 9.14191C57.0579 9.19635 56.4309 9.38932 55.8659 9.70771C55.301 10.0261 54.8113 10.4624 54.4303 10.9869L43.2998 26.2953C44.5803 27.5779 45.5954 29.1 46.2871 30.7746C46.9789 32.4493 47.3338 34.2437 47.3315 36.0554C47.3315 36.3925 47.3152 36.7254 47.2915 37.0564L64.9841 42.8009C65.6097 43.0027 66.2718 43.0658 66.9242 42.9857C67.5767 42.9057 68.2039 42.6845 68.7621 42.3375C69.3202 41.9905 69.796 41.5261 70.1562 40.9767C70.5164 40.4272 70.7524 39.8058 70.8478 39.1559C71.0961 37.5033 71.2208 35.8346 71.2208 34.1635C71.2345 29.7385 70.3581 25.356 68.6438 21.2761C66.9294 17.1961 64.412 13.5021 61.2411 10.4133Z" fill="#C8B65E"/>
<path d="M33.4818 22.2157C35.8647 22.213 38.2076 22.8277 40.2817 23.9999L47.0752 14.6564C47.4215 14.1805 47.6604 13.6353 47.7753 13.0582C47.8902 12.4812 47.8784 11.8861 47.7408 11.314C47.6076 10.7528 47.3541 10.2272 46.9978 9.77348C46.6415 9.31974 46.1909 8.94865 45.6772 8.68583C41.4829 6.5543 36.8451 5.43998 32.1395 5.43314C27.434 5.42629 22.793 6.52711 18.5925 8.64642C18.0627 8.91351 17.5975 9.29248 17.2289 9.75708C16.8603 10.2217 16.5971 10.7608 16.4577 11.3371C16.3203 11.9052 16.3081 12.4963 16.4219 13.0696C16.5358 13.6429 16.7731 14.1845 17.1173 14.6571L24.824 25.2566C27.2778 23.2848 30.3331 22.2117 33.4818 22.2157Z" fill="#E6E6E6"/>
</g>
<defs>
<clipPath id="clip0_268_1086">
<rect width="161.778" height="130" fill="white"/>
</clipPath>
</defs>
</svg>
