<svg width="165" height="130" viewBox="0 0 165 130" fill="none" xmlns="http://www.w3.org/2000/svg">
<g clip-path="url(#clip0_268_1308)">
<path d="M149.735 0.0849609H0.0634766V96.0518H149.735V0.0849609Z" fill="#E6E6E6"/>
<path d="M145.456 12.1216H4.34375V90.3744H145.456V12.1216Z" fill="white"/>
<path d="M149.672 0H0V6.36593H149.672V0Z" fill="#C8B65E"/>
<path d="M4.72539 4.43446C5.37627 4.43446 5.90391 3.90621 5.90391 3.25458C5.90391 2.60296 5.37627 2.07471 4.72539 2.07471C4.07452 2.07471 3.54688 2.60296 3.54688 3.25458C3.54688 3.90621 4.07452 4.43446 4.72539 4.43446Z" fill="white"/>
<path d="M9.19903 4.43446C9.8499 4.43446 10.3775 3.90621 10.3775 3.25458C10.3775 2.60296 9.8499 2.07471 9.19903 2.07471C8.54815 2.07471 8.02051 2.60296 8.02051 3.25458C8.02051 3.90621 8.54815 4.43446 9.19903 4.43446Z" fill="white"/>
<path d="M13.6717 4.43446C14.3226 4.43446 14.8502 3.90621 14.8502 3.25458C14.8502 2.60296 14.3226 2.07471 13.6717 2.07471C13.0208 2.07471 12.4932 2.60296 12.4932 3.25458C12.4932 3.90621 13.0208 4.43446 13.6717 4.43446Z" fill="white"/>
<path d="M53.4252 20.2407H17.166V82.2548H53.4252V20.2407Z" fill="#E6E6E6"/>
<path d="M89.8995 20.2407H59.6836V37.3108H89.8995V20.2407Z" fill="#C8B65E"/>
<path d="M89.8995 42.0649H59.6836V60.4315H89.8995V42.0649Z" fill="#E6E6E6"/>
<path d="M89.8995 65.1851H59.6836V82.2551H89.8995V65.1851Z" fill="#E6E6E6"/>
<path d="M132.634 20.2407H96.375V47.2661H132.634V20.2407Z" fill="#E6E6E6"/>
<path d="M132.634 55.2295H96.375V82.2549H132.634V55.2295Z" fill="#E6E6E6"/>
<path d="M118.665 49.2078V43.3896C118.665 41.3219 119.486 39.3389 120.946 37.8768C122.406 36.4147 124.387 35.5933 126.452 35.5933C128.518 35.5933 130.499 36.4147 131.959 37.8768C133.419 39.3389 134.24 41.3219 134.24 43.3896V49.2078C134.24 49.4855 134.129 49.7517 133.933 49.948C133.737 50.1443 133.471 50.2548 133.194 50.2551H119.711C119.434 50.2548 119.168 50.1443 118.972 49.948C118.776 49.7517 118.665 49.4855 118.665 49.2078Z" fill="#2F2E41"/>
<path d="M137.968 124.925L135.222 125.686L130.982 115.441L135.036 114.318L137.968 124.925Z" fill="#FFB8B8"/>
<path d="M133.042 125.444L138.339 123.976L139.262 127.315L130.63 129.707C130.509 129.268 130.475 128.81 130.531 128.359C130.586 127.907 130.73 127.471 130.954 127.075C131.178 126.679 131.478 126.331 131.836 126.051C132.194 125.771 132.604 125.565 133.042 125.444Z" fill="#2F2E41"/>
<path d="M109.332 127.04H106.482L105.126 116.035H109.332L109.332 127.04Z" fill="#FFB8B8"/>
<path d="M104.447 126.225H109.943V129.689H100.986C100.986 129.234 101.076 128.784 101.25 128.363C101.424 127.943 101.679 127.561 102 127.239C102.321 126.918 102.703 126.662 103.123 126.488C103.542 126.314 103.992 126.225 104.447 126.225Z" fill="#2F2E41"/>
<path d="M105.896 65.5353C106.099 65.8102 106.36 66.0371 106.661 66.2C106.961 66.363 107.294 66.458 107.635 66.4783C107.976 66.4987 108.317 66.4439 108.635 66.3179C108.953 66.1918 109.239 65.9976 109.474 65.7488L117.05 69.1601L116.36 64.8939L109.272 62.3085C108.828 61.9416 108.266 61.7504 107.691 61.771C107.116 61.7917 106.568 62.0228 106.152 62.4205C105.736 62.8183 105.48 63.355 105.433 63.9291C105.385 64.5032 105.55 65.0747 105.896 65.5353H105.896Z" fill="#FFB8B8"/>
<path d="M121.637 91.1911C119.256 91.1911 116.792 90.8361 114.721 89.7804C113.622 89.231 112.647 88.4604 111.859 87.5167C111.071 86.573 110.486 85.4766 110.14 84.2961C109.061 80.8752 110.421 77.5144 111.737 74.2644C112.553 72.2504 113.323 70.3483 113.522 68.4733L113.592 67.8076C113.904 64.8176 114.172 62.2353 115.66 61.2668C116.432 60.7647 117.469 60.7361 118.831 61.179L131.627 65.3405L131.157 89.6582L131.079 89.6843C131.012 89.7068 126.501 91.1911 121.637 91.1911Z" fill="#2F2E41"/>
<path d="M118.607 53.6084C118.607 53.6084 124.884 51.7466 129.765 52.4447C129.765 52.4447 126.976 67.8047 127.906 72.9247C128.836 78.0447 111.75 74.9029 115.237 70.0157L116.399 64.1975C116.399 64.1975 114.074 61.8702 116.167 59.0775L118.607 53.6084Z" fill="#C8B65E"/>
<path d="M115.521 90.7298L107.785 89.2777L110.486 68.4703C110.667 67.8894 114.851 54.7061 116.751 53.9928C118.131 53.5064 119.541 53.114 120.974 52.8183L121.249 52.7632L119.698 55.0925L113.523 69.9066L115.521 90.7298Z" fill="#2F2E41"/>
<path d="M111.49 124.49L101.495 122.822L107.104 99.8932L115.45 68.5361L115.532 69.093C115.539 69.1344 116.319 73.2308 127.888 71.4132L127.989 71.3973L128.018 71.4965L142 120.96L130.612 122.86L120.225 86.7717L111.49 124.49Z" fill="#2F2E41"/>
<path d="M125.343 94.6236L125.349 94.4476C125.356 94.2521 126.044 74.8118 125.814 66.9934C125.583 59.1484 128.12 52.3546 128.146 52.2869L128.167 52.2324L128.223 52.2162C131.505 51.2775 134.352 54.0793 134.381 54.1077L134.421 54.1477L133.486 61.8687L137.488 89.9453L125.343 94.6236Z" fill="#2F2E41"/>
<path d="M124.853 50.1195C128.006 50.1195 130.562 47.5604 130.562 44.4035C130.562 41.2467 128.006 38.6875 124.853 38.6875C121.7 38.6875 119.144 41.2467 119.144 44.4035C119.144 47.5604 121.7 50.1195 124.853 50.1195Z" fill="#FFB8B8"/>
<path d="M116.823 43.8553C116.825 42.2202 117.475 40.6526 118.63 39.4964C119.784 38.3402 121.35 37.6898 122.983 37.688H124.146C125.779 37.6898 127.345 38.3402 128.5 39.4964C129.654 40.6526 130.304 42.2202 130.306 43.8553V43.9716H127.85L127.012 41.623L126.844 43.9716H125.575L125.152 42.7866L125.068 43.9716H116.823V43.8553Z" fill="#2F2E41"/>
<path d="M124.29 50.9096C124.175 50.7532 124.106 50.5675 124.092 50.3737C124.077 50.1799 124.118 49.9859 124.209 49.8141C125.44 47.4687 127.165 43.1348 124.876 40.4621L124.711 40.27H131.357V50.2586L125.32 51.325C125.259 51.3358 125.197 51.3413 125.135 51.3414C124.97 51.3414 124.807 51.3022 124.661 51.2272C124.514 51.1521 124.387 51.0432 124.29 50.9096Z" fill="#2F2E41"/>
<path d="M97.535 9.66912C92.8849 5.74076 87.1946 3.25023 81.1564 2.50059C75.1182 1.75096 68.9926 2.77453 63.5249 5.44676C58.0572 8.119 53.4832 12.3247 50.3595 17.552C47.2357 22.7794 45.6969 28.803 45.9303 34.8899C46.1637 40.9769 48.1593 46.8647 51.6741 51.8369C55.189 56.8091 60.0716 60.6513 65.7279 62.896C71.3841 65.1407 77.5701 65.6911 83.5331 64.4802C89.496 63.2693 94.9789 60.3493 99.3145 56.0756L137.814 88.5987C138.4 89.0945 139.158 89.3371 139.923 89.273C140.687 89.2089 141.395 88.8434 141.89 88.257C142.385 87.6705 142.628 86.9111 142.564 86.1458C142.5 85.3805 142.134 84.672 141.549 84.1762L141.544 84.1726L103.045 51.6495C107.517 45.2232 109.432 37.3564 108.412 29.5908C107.393 21.8252 103.514 14.7205 97.535 9.66912ZM95.0531 48.5177C92.0538 52.0764 88.0679 54.6646 83.5993 55.9553C79.1307 57.2459 74.3802 57.181 69.9484 55.7686C65.5167 54.3563 61.6029 51.66 58.7018 48.0207C55.8007 44.3814 54.0427 39.9626 53.6501 35.323C53.2575 30.6834 54.2479 26.0315 56.4961 21.9554C58.7443 17.8794 62.1493 14.5623 66.2805 12.4237C70.4117 10.2851 75.0836 9.42092 79.7054 9.94055C84.3272 10.4602 88.6913 12.3402 92.2458 15.343H92.2458C94.6059 17.3367 96.5507 19.7763 97.9691 22.5225C99.3874 25.2687 100.252 28.2677 100.512 31.3483C100.773 34.4288 100.425 37.5306 99.4883 40.4766C98.5517 43.4225 97.0446 46.1549 95.0531 48.5177Z" fill="#3F3D56"/>
<path opacity="0.3" d="M61.9165 51.328C57.4053 47.5168 54.4908 42.1465 53.7516 36.2835C53.0124 30.4205 54.5025 24.4936 57.9262 19.6797C57.4765 20.133 57.0419 20.6078 56.6222 21.104C54.6308 23.4668 53.1237 26.1992 52.187 29.1451C51.2503 32.0911 50.9024 35.1929 51.163 38.2734C51.4237 41.354 52.2879 44.353 53.7063 47.0992C55.1246 49.8454 57.0694 52.285 59.4295 54.2787C61.7896 56.2725 64.5189 57.7813 67.4614 58.7191C70.404 59.6568 73.5022 60.0052 76.5792 59.7442C79.6562 59.4832 82.6518 58.618 85.3948 57.198C88.1378 55.778 90.5746 53.831 92.5661 51.4682C92.9848 50.9714 93.3792 50.4626 93.7491 49.9418C89.5852 54.1303 84.0002 56.598 78.103 56.8549C72.2059 57.1117 66.4279 55.1388 61.9165 51.328Z" fill="black"/>
<path d="M126.686 75.5281C127.018 75.6094 127.363 75.6168 127.699 75.5498C128.034 75.4828 128.35 75.3431 128.625 75.1405C128.901 74.9378 129.128 74.6772 129.292 74.377C129.456 74.0767 129.552 73.7442 129.574 73.4027L137.578 71.1785L134.324 68.3384L127.222 70.886C126.647 70.8877 126.092 71.1006 125.663 71.4845C125.234 71.8683 124.961 72.3963 124.894 72.9685C124.828 73.5407 124.974 74.1173 125.304 74.5891C125.634 75.0608 126.126 75.395 126.686 75.5281Z" fill="#FFB8B8"/>
<path d="M130.012 74.3511L129.525 69.7184L136.211 66.0252L131.852 60.7423L132.564 54.8078L134.335 54.0479L134.39 54.1188C135.225 55.194 142.551 64.6568 142.551 65.8266C142.551 67.0281 141.149 70.5564 139.232 71.5161C137.382 72.4419 130.438 74.2413 130.143 74.3175L130.012 74.3511Z" fill="#2F2E41"/>
<path d="M164.705 130H76.1377C76.0761 130 76.0169 129.976 75.9733 129.932C75.9298 129.888 75.9053 129.829 75.9053 129.767C75.9053 129.706 75.9298 129.646 75.9733 129.603C76.0169 129.559 76.0761 129.535 76.1377 129.535H164.705C164.766 129.535 164.826 129.559 164.869 129.603C164.913 129.646 164.937 129.706 164.937 129.767C164.937 129.829 164.913 129.888 164.869 129.932C164.826 129.976 164.766 130 164.705 130Z" fill="#CCCCCC"/>
</g>
<defs>
<clipPath id="clip0_268_1308">
<rect width="164.938" height="130" fill="white"/>
</clipPath>
</defs>
</svg>
