<svg width="171" height="130" viewBox="0 0 171 130" fill="none" xmlns="http://www.w3.org/2000/svg">
<g clip-path="url(#clip0_268_1247)">
<path d="M130.007 18.0966C128.475 12.5132 140.829 7.72535 144.073 12.2216C144.524 11.5824 146.191 11.1941 146.956 11.3902C147.721 11.5863 148.364 12.0765 148.992 12.5511C149.855 13.2139 150.749 13.9002 151.279 14.8532C151.812 15.8023 151.895 17.0965 151.177 17.9201C150.608 18.575 148.929 18.9986 148.074 19.1711C147.478 19.2927 146.976 19.3908 146.544 19.4614C146.152 18.8968 145.972 18.2123 146.034 17.5279C145.744 17.7238 145.501 17.9815 145.322 18.2825C145.143 18.5836 145.032 18.9205 144.999 19.2692C144.987 19.4143 149.82 37.192 149.82 37.192C149.239 37.5224 148.628 37.7968 147.996 38.0116C146.744 36.0993 145.786 34.0108 145.152 31.8151C145.006 33.2833 145.025 34.7631 145.207 36.2272C145.304 37.0482 145.443 37.8637 145.623 38.6705C139.88 39.9098 131.242 39.5019 127.485 34.231C127.484 34.2092 127.483 34.1874 127.483 34.1655C127.48 33.9575 127.405 33.7569 127.27 33.5982C127.135 33.4395 126.95 33.3325 126.745 33.2955C126.54 33.2585 126.329 33.2939 126.147 33.3956C125.966 33.4972 125.825 33.6589 125.75 33.8528C125.659 34.0853 125.575 34.2866 125.5 34.4467C124.405 30.5327 125.821 26.003 130.007 18.0966Z" fill="#2F2E41"/>
<path d="M120.234 111.704V111.886C120.227 111.826 120.227 111.764 120.234 111.704Z" fill="#2F2E41"/>
<path d="M125.858 80.1054C126.004 80.0659 126.153 80.037 126.303 80.019C126.131 80.0471 125.983 80.0759 125.858 80.1054Z" fill="#2F2E41"/>
<path d="M125.729 80.1386C125.768 80.1276 125.812 80.1165 125.859 80.1055C125.815 80.1168 125.773 80.1251 125.729 80.1386Z" fill="#2F2E41"/>
<path d="M167.277 129.999H146.227C145.927 129.76 145.718 129.424 145.636 129.049C145.554 128.674 145.604 128.281 145.777 127.938C146.352 126.62 145.225 125.415 145.225 125.415C144.842 124.967 144.576 124.431 144.45 123.856C144.325 123.28 144.343 122.683 144.503 122.116C145.061 120.168 142.876 114.671 142.876 114.671C142.876 114.671 141.697 121.769 140.254 129.999H120.234C119.899 129.428 119.722 128.778 119.722 128.116C119.722 127.453 119.899 126.803 120.234 126.232C121.401 124.254 120.234 123.875 120.234 123.875C120.234 123.875 119.068 121.662 120.234 120.055C121.401 118.448 120.234 111.886 120.234 111.886C120.278 112.177 120.611 111.649 121.122 110.543C121.901 108.861 123.092 105.835 124.295 102.322C125.155 99.8147 126.022 97.0561 126.746 94.359H126.748C126.938 93.6505 127.118 92.9483 127.288 92.2527C127.62 90.8883 127.905 89.5626 128.121 88.3178C128.591 85.6366 128.746 83.3333 128.385 81.8353C128.086 80.5888 127.432 79.9013 126.303 80.0191C126.908 79.9189 127.794 79.824 128.886 79.7343C129.083 79.7185 129.287 79.7027 129.498 79.6851C137.644 79.0697 155.12 78.7163 155.12 78.7163L160.473 88.3002L167.252 100.441C167.252 100.441 167.068 116.727 167.277 129.999Z" fill="#2F2E41"/>
<path d="M144.809 37.2928L132.477 34.6772L130.028 39.6052L121.782 44.3784C121.782 44.3784 127.097 66.1077 127.067 69.1638C126.99 76.9228 114.573 94.3161 123.952 92.978C133.331 91.64 135.236 86.0352 138.247 86.9215C140.963 87.7207 144.278 91.2763 146.498 88.7333C148.718 86.1904 149.5 89.1269 150.903 89.2283C151.57 89.2766 151.169 86.0173 152.847 89.3296C154.525 92.6419 163.425 88.1832 160.409 85.1674C155.385 80.1447 154.364 43.1191 154.364 43.1191L148.772 41.3987L144.809 37.2928Z" fill="#C8B65E"/>
<path d="M121.548 116.204C122.044 115.613 122.289 114.853 122.232 114.084C122.175 113.315 121.821 112.598 121.243 112.087C121.124 111.985 120.997 111.893 120.863 111.812L122.925 101.694L118.158 98.8413L116.832 113.007C116.539 113.589 116.447 114.252 116.57 114.892C116.693 115.532 117.024 116.114 117.513 116.546C117.793 116.789 118.118 116.974 118.47 117.092C118.822 117.209 119.194 117.256 119.564 117.23C119.934 117.204 120.295 117.105 120.627 116.939C120.959 116.773 121.255 116.544 121.498 116.263C121.515 116.244 121.532 116.224 121.548 116.204Z" fill="#FFB6B6"/>
<path d="M136.35 62.871C136.32 62.5458 135.905 62.3981 135.33 62.1941C134.752 62.0162 134.203 61.7563 133.7 61.4223C132.427 60.5027 132.928 59.541 133.621 58.2118C133.756 57.9533 133.897 57.6843 134.029 57.4048C134.421 56.5767 133.796 53.1605 132.17 47.2494C131.669 45.4297 131.67 44.1445 131.324 43.2917C130.979 42.439 130.288 42.0188 128.405 41.9309C126.128 41.816 123.899 42.6082 122.206 44.1339C122.16 44.1743 122.113 44.2183 122.067 44.2605C121.981 44.3414 121.896 44.424 121.814 44.5084C120.248 46.0834 119.352 48.2027 119.313 50.423L119.304 50.801L118.916 68.8612L117.824 84.7096L116.318 106.541L117.433 106.596L121.882 106.817L122.422 106.844L123.702 101.474L125.243 95.0126L125.809 92.6391L127.566 85.2757L128.385 81.8349L128.887 79.7339L129.091 78.8759L130.086 74.7055C130.109 74.6176 132.398 65.5857 135.038 64.0754C136.023 63.5128 136.378 63.1857 136.35 62.871Z" fill="#C8B65E"/>
<path d="M165.966 116.097C165.41 115.563 165.084 114.832 165.058 114.062C165.032 113.291 165.308 112.541 165.827 111.971C165.934 111.856 166.05 111.751 166.175 111.656L163.038 101.818L167.471 98.4702L170.311 112.412C170.665 112.959 170.828 113.608 170.775 114.258C170.721 114.907 170.454 115.521 170.015 116.003C169.762 116.275 169.459 116.494 169.121 116.649C168.784 116.803 168.419 116.89 168.049 116.903C167.678 116.917 167.308 116.858 166.96 116.728C166.613 116.599 166.294 116.403 166.022 116.15C166.003 116.133 165.984 116.115 165.966 116.097Z" fill="#FFB6B6"/>
<path d="M168.134 94.7489C168.134 94.7489 164.677 82.5869 165.731 81.2703C166.786 79.9537 163.672 79.6966 165.014 77.2445C166.355 74.7925 164.503 74.3824 164.503 74.3824L163.498 68.7446L161.701 54.8967L161.647 54.4849L161.124 50.4561C160.978 49.3054 160.602 48.1959 160.017 47.1941C159.432 46.1922 158.652 45.3185 157.722 44.6251C157.674 44.5888 157.626 44.5539 157.577 44.5189C157.356 44.3597 157.13 44.2122 156.899 44.0764C155.174 43.059 153.149 42.6743 151.171 42.9885C147.444 43.5688 148.604 44.9583 148 48.6806C147.018 54.733 146.763 58.1956 147.241 58.9779C147.403 59.2413 147.572 59.4934 147.734 59.7354C148.566 60.9842 149.168 61.8851 148 62.9381C147.535 63.3229 147.017 63.6396 146.462 63.8787C145.914 64.1444 145.516 64.335 145.522 64.6617C145.528 64.9781 145.916 65.2638 146.955 65.7169C148.213 66.2677 149.565 68.3502 150.673 70.4775C151.552 72.1922 152.335 73.9539 153.02 75.7547L162.539 102.52L164.091 106.885L164.627 106.8L169.025 106.103L170.128 105.928L168.134 94.7489Z" fill="#C8B65E"/>
<path d="M139.607 34.492C145.163 34.492 149.668 29.9881 149.668 24.4323C149.668 18.8764 145.163 14.3726 139.607 14.3726C134.05 14.3726 129.545 18.8764 129.545 24.4323C129.545 29.9881 134.05 34.492 139.607 34.492Z" fill="#FFB6B6"/>
<path d="M124.515 18.8808C122.983 13.2974 135.337 8.50953 138.581 13.0058C139.032 12.3666 140.699 11.9783 141.464 12.1744C142.229 12.3705 142.872 12.8607 143.5 13.3353C144.363 13.9981 145.257 14.6844 145.787 15.6374C146.32 16.5865 146.403 17.8807 145.685 18.7043C145.116 19.3592 143.437 19.7828 142.582 19.9553C141.986 20.0769 141.484 20.175 141.052 20.2455C140.66 19.681 140.48 18.9965 140.542 18.3121C140.252 18.5079 140.008 18.7657 139.829 19.0667C139.65 19.3678 139.54 19.7047 139.507 20.0534C139.495 20.1985 144.328 37.9762 144.328 37.9762C143.747 38.3066 143.136 38.581 142.504 38.7958C141.252 36.8835 140.294 34.795 139.66 32.5993C139.514 34.0675 139.532 35.5473 139.715 37.0114C139.812 37.8324 139.95 38.6479 140.13 39.4547C134.388 40.694 125.75 40.2861 121.992 35.0152C121.992 34.9934 121.991 34.9716 121.99 34.9497C121.988 34.7417 121.912 34.5411 121.778 34.3824C121.643 34.2237 121.458 34.1167 121.253 34.0797C121.048 34.0427 120.837 34.0781 120.655 34.1798C120.474 34.2814 120.333 34.443 120.257 34.6369C120.166 34.8695 120.082 35.0708 120.008 35.2309C118.913 31.3169 120.329 26.7872 124.515 18.8808Z" fill="#2F2E41"/>
<path d="M36.178 12.2217C35.9911 12.6573 30.2262 12.6106 29.9622 12.9985C27.9265 15.9932 35.2647 28.7348 33.2291 31.7334L32.9455 32.0713C33.6096 31.7653 34.2475 31.4055 34.853 30.9954C34.9073 29.768 34.9617 28.5368 35.02 27.3094C35.6297 28.0892 36.1219 28.9542 36.4807 29.8768C36.9547 29.5428 37.3435 28.9235 39.375 27.7056C40.1974 26.8023 41.1455 26.022 42.1902 25.3886L36.178 12.2217Z" fill="#2F2E41"/>
<path d="M40.3638 36.765C39.7276 36.3507 39.0018 36.094 38.2466 36.0163C37.4913 35.9386 36.7284 36.0421 36.0212 36.3181C35.3139 36.5942 34.6827 37.0349 34.18 37.6038C33.6772 38.1726 33.3174 38.8531 33.1303 39.5888L24.3698 62.4107L9.31148 53.8633C9.24536 52.8808 8.86974 51.9446 8.23849 51.1887C7.60724 50.4329 6.7528 49.8964 5.7977 49.6561C4.84261 49.4158 3.83593 49.4841 2.92205 49.8512C2.00818 50.2182 1.23406 50.8653 0.710714 51.6994C0.187372 52.5336 -0.0583038 53.512 0.00892394 54.4944C0.0761516 55.4768 0.45283 56.4126 1.08493 57.1678C1.71703 57.9229 2.57208 58.4584 3.52745 58.6977C4.48281 58.9369 5.48941 58.8674 6.40287 58.4993C9.57402 61.8832 23.3221 75.7571 29.0137 70.3362C33.7978 65.7797 40.7018 48.1204 42.3637 42.0223C42.63 41.0472 42.5798 40.0127 42.2203 39.0679C41.8609 38.1232 41.2109 37.3168 40.3638 36.765Z" fill="#FFB6B6"/>
<path d="M23.9141 71.2925L26.6786 83.7854L46.8939 85.6136L48.7518 74.7356L23.9141 71.2925Z" fill="#FFB6B6"/>
<path d="M54.7932 103.329C54.784 103.508 54.7729 103.685 54.76 103.864C54.5661 106.453 54.3445 109.439 54.1044 112.71C53.7259 117.902 53.303 123.814 52.8764 129.999H10.4746L18.698 105.287C18.698 105.287 22.0184 103.459 20.3279 100.389C18.6375 97.3182 21.9637 99.765 21.9946 95.38C22.0256 90.9949 25.0062 86.3298 25.0062 86.3298L25.4956 79.6904L25.7744 79.696L47.8405 80.0634L48.243 80.0708L48.9208 85.7704C53.0358 90.6662 55.1351 96.9431 54.7932 103.329Z" fill="#2F2E41"/>
<path d="M36.5315 30.7101L46.5936 30.1919L51.2672 37.5753C51.2672 37.5753 60.0607 39.0452 59.4511 49.4052C58.8416 59.7652 48.7521 68.8562 48.7521 68.8562L49.1834 67.3778L48.4343 69.5177L48.5304 70.7193L49.5522 71.9918L49.6574 73.3078L48.7521 75.3899C48.8698 75.5786 48.9323 75.7964 48.9324 76.0188C48.9326 76.2412 48.8704 76.4592 48.7529 76.648C48.6354 76.8368 48.4674 76.989 48.2678 77.0871C48.0682 77.1853 47.8451 77.2256 47.6238 77.2034L33.0848 75.7466C32.7538 74.8362 32.4882 73.747 31.1614 75.5603L29.7918 75.4277L24.0983 74.8762L23.7632 73.6556C23.5728 72.9621 23.5431 72.2343 23.6765 71.5276C23.8098 70.8209 24.1026 70.154 24.5326 69.5774C24.0381 68.0292 24.1676 66.3491 24.8936 64.8949L24.9208 64.8403L25.5254 64.3365C25.5254 64.3365 18.9108 54.4008 26.5042 46.9173L29.5519 41.7373L32.9619 37.5777L36.5315 30.7101Z" fill="#C8B65E"/>
<path d="M39.0358 26.3521C44.3055 26.3521 48.5775 22.081 48.5775 16.8123C48.5775 11.5436 44.3055 7.27246 39.0358 7.27246C33.7661 7.27246 29.4941 11.5436 29.4941 16.8123C29.4941 22.081 33.7661 26.3521 39.0358 26.3521Z" fill="#FFB6B6"/>
<path d="M46.282 30.5551C45.505 29.906 44.9642 29.0184 44.7436 28.0304C44.5671 29.23 44.6132 30.4519 44.8795 31.6349C44.3628 32.0233 43.8617 32.3923 43.3877 32.7263C43.0289 31.8038 42.5367 30.9388 41.927 30.1589C41.8687 31.3863 41.8143 32.6176 41.76 33.8449C41.1546 34.255 40.5166 34.6149 39.8525 34.9209L40.1361 34.5829C42.1717 31.5844 36.9038 26.065 38.9395 23.0703C39.5106 22.2313 36.931 15.6011 34.9653 15.302C33.2171 15.0379 33.2909 15.5428 31.5971 15.9118C31.4212 15.1784 31.1481 14.4717 30.7851 13.8105C30.8817 14.5473 30.8594 15.2948 30.7191 16.0245C30.1169 16.0478 29.6432 15.6641 29.002 15.5661C24.9111 14.9408 25.3268 10.5168 26.4651 9.11456C27.6073 7.71627 31.3989 7.29678 33.1471 6.84232C33.3064 6.68697 33.6677 6.78407 33.827 6.63647C37.1773 3.57089 41.6582 3.06321 45.6906 4.42194C49.9908 5.87092 52.6719 8.67536 54.0479 12.9987L54.4426 16.4585C54.7966 17.5709 54.3512 22.747 54.0479 23.8743C52.8688 28.2564 50.3577 26.0689 46.282 30.5551Z" fill="#2F2E41"/>
<path d="M60.1947 75.752L59.819 46.5016C59.7994 45.2624 59.2933 44.0806 58.4099 43.2112C57.5265 42.3418 56.3366 41.8545 55.097 41.8545H55.097C54.4557 41.8545 53.8212 41.9851 53.232 42.2383C52.6429 42.4915 52.1115 42.8619 51.6702 43.3272C51.229 43.7924 50.8871 44.3426 50.6655 44.9442C50.4438 45.5459 50.347 46.1863 50.381 46.8266L51.7029 77.1986L51.728 95.6876C50.9489 96.018 50.2904 96.5801 49.842 97.2976C49.3936 98.0151 49.1769 98.8533 49.2215 99.6982C49.2662 100.543 49.5698 101.354 50.0913 102.02C50.6128 102.686 51.3268 103.176 52.1363 103.423C52.9458 103.669 53.8116 103.66 54.6161 103.398C55.4205 103.135 56.1246 102.631 56.6327 101.955C57.1407 101.278 57.4282 100.462 57.4559 99.616C57.4836 98.7704 57.2503 97.9367 56.7876 97.2283L60.1947 75.752Z" fill="#FFB6B6"/>
<path d="M109.44 113.595C109.44 113.595 108.859 124.042 108.592 130H88.5915C88.1799 124.578 88.0413 120.594 88.0413 120.594L86.9469 130H66.7299L65.4766 112.58L71.5335 97.5694C71.5335 97.5694 104.358 95.2934 107.402 98.1807C110.445 101.066 109.44 113.595 109.44 113.595Z" fill="#2F2E41"/>
<path d="M91.7542 25.7156C97.7879 25.7156 102.679 20.8252 102.679 14.7926C102.679 8.76001 97.7879 3.86963 91.7542 3.86963C85.7204 3.86963 80.8291 8.76001 80.8291 14.7926C80.8291 20.8252 85.7204 25.7156 91.7542 25.7156Z" fill="#FFB6B6"/>
<path d="M104.488 11.2437C103.366 11.7553 102.639 15.4604 101.757 14.5991C100.875 13.7377 100.934 12.6168 99.7448 12.2989C98.7845 12.0411 97.7511 12.3357 96.8752 12.8004C96.7188 12.8824 96.5672 12.9715 96.4194 13.0602C96.3219 12.995 96.2248 12.9337 96.1206 12.8772C95.3371 12.458 94.4226 12.3551 93.5656 12.5898C94.2428 12.8166 94.8316 13.2505 95.2487 13.8302C94.9556 14.0266 94.6586 14.2235 94.3549 14.398C91.8176 15.862 88.207 12.6786 85.5362 11.4827C87.2091 14.6214 86.3854 15.9213 84.9328 19.1674L84.8827 19.3523C84.9652 18.5387 82.4472 17.9324 82.5932 19.0777C82.6969 19.8908 83.4007 21.6982 83.7949 22.4161C80.9869 19.1699 79.0679 15.1973 79.4729 11.0993C79.561 10.2385 79.5344 9.33017 79.9785 8.58299C80.4231 7.83967 81.35 7.31805 82.1699 7.6015C82.1005 6.29461 82.3865 4.99331 82.9977 3.83597C83.6088 2.67863 84.5222 1.70849 85.6408 1.0287C86.7593 0.348905 88.0412 -0.0151296 89.3502 -0.0247083C90.6591 -0.0342871 91.9462 0.310951 93.0746 0.974299C94.1231 1.58942 94.9984 2.45941 95.9594 3.20984C96.9204 3.96026 98.0282 4.61438 99.2468 4.67633C100.02 4.71361 100.861 4.52491 101.525 4.92522C102.295 5.38971 102.426 6.36221 102.542 7.29799C101.856 7.36563 101.205 7.63627 100.674 8.07533C101.384 8.00293 102.098 8.1562 102.716 8.51336C102.728 8.51866 102.739 8.52503 102.75 8.53237C103.156 10.0789 103.115 10.4218 104.488 11.2437Z" fill="#2F2E41"/>
<path d="M66.7783 102.854C76.0819 91.9662 72.9395 78.1176 69.2469 64.1382L69.9495 43.4863C69.984 42.4732 70.2618 41.4833 70.7594 40.6002C71.257 39.7171 71.9599 38.9666 72.8087 38.4123L82.3065 32.2085L86.0032 26.8647L96.1932 27.8835L101.844 33.8582L108.099 38.6323C109.669 39.831 110.864 41.4536 111.543 43.3089C112.221 45.1642 112.355 47.1747 111.928 49.1036L105.943 76.1671C105.943 76.1671 108.446 90.1971 106.919 91.7466C105.391 93.2961 101.455 91.7474 104.577 93.4868C108.322 95.5742 111.728 95.1891 109.833 97.0843C107.937 98.9795 110.336 101.614 110.336 101.614L66.7783 102.854Z" fill="#C8B65E"/>
<path d="M70.7565 118.678L72.3075 107.63L66.1187 105.863L64.8945 117.602C64.3823 118.072 64.0113 118.675 63.8231 119.344C63.635 120.012 63.6371 120.721 63.8294 121.388C64.0216 122.056 64.3963 122.657 64.9114 123.123C65.4264 123.589 66.0613 123.903 66.7448 124.028C67.4283 124.154 68.1332 124.086 68.7803 123.833C69.4274 123.58 69.9911 123.151 70.4079 122.595C70.8247 122.039 71.0781 121.378 71.1397 120.686C71.2013 119.994 71.0686 119.298 70.7565 118.678Z" fill="#FFB6B6"/>
<path d="M82.5385 34.1997C82.5385 34.1997 64.9224 39.9321 64.5023 44.1264C64.0823 48.3207 64.2216 50.8883 62.3623 67.6721L62.4603 112.883C62.4603 112.883 74.2708 115.411 73.0596 112.708C71.8484 110.005 72.271 108.733 72.271 108.733C72.271 108.733 74.8032 107.734 74.1693 104.56C73.5354 101.387 76.7142 85.658 76.7142 85.658L78.7205 57.4497L82.5385 34.1997Z" fill="#C8B65E"/>
<path d="M104.26 118.093L103.435 106.967L109.726 105.609L110.18 117.403C110.66 117.905 110.991 118.531 111.135 119.21C111.279 119.89 111.231 120.597 110.995 121.25C110.76 121.904 110.346 122.479 109.802 122.911C109.258 123.342 108.603 123.614 107.913 123.694C107.223 123.775 106.524 123.661 105.895 123.366C105.266 123.071 104.731 122.607 104.352 122.025C103.972 121.443 103.763 120.766 103.746 120.072C103.73 119.377 103.908 118.692 104.26 118.093H104.26Z" fill="#FFB6B6"/>
<path d="M98.0254 33.0254C98.0254 33.0254 115.229 39.8968 115.374 44.1095C115.519 48.3223 115.212 50.8753 115.97 67.7448L112.917 112.853C112.917 112.853 100.966 114.604 102.351 111.985C103.737 109.367 103.398 108.071 103.398 108.071C103.398 108.071 100.937 106.908 101.777 103.783C102.617 100.657 100.473 84.7543 100.473 84.7543L100.315 56.4751L98.0254 33.0254Z" fill="#C8B65E"/>
</g>
<defs>
<clipPath id="clip0_268_1247">
<rect width="170.784" height="130" fill="white"/>
</clipPath>
</defs>
</svg>
