<svg width="192" height="130" viewBox="0 0 192 130" fill="none" xmlns="http://www.w3.org/2000/svg">
<g clip-path="url(#clip0_268_1409)">
<path d="M89.7833 48.6783H89.783H58.5938V1.87033C58.5941 1.44055 58.7647 1.02859 59.0678 0.724843C59.3709 0.421091 59.7817 0.250375 60.2101 0.25L190.119 0.25C190.548 0.249978 190.959 0.420515 191.262 0.724308C191.566 1.02812 191.737 1.44037 191.737 1.8705V90.0883V90.089C191.738 90.2994 191.696 90.5078 191.615 90.7018L191.614 90.7047C191.558 90.8449 191.48 90.9756 191.385 91.0927L191.378 91.1014L191.371 91.1108C191.366 91.1187 191.36 91.1261 191.354 91.133L191.354 91.1329L191.347 91.1402C191.196 91.3184 191.007 91.4615 190.795 91.5596C190.583 91.6577 190.352 91.7085 190.119 91.7085H93.2432V52.1454V52.1451C93.2421 51.2262 92.8774 50.3451 92.2288 49.6951C91.5802 49.0451 90.7008 48.6794 89.7833 48.6783Z" fill="#F2F2F2" stroke="#E0E0E0" stroke-width="0.5"/>
<path d="M191.718 7.49609H58.6084V8.03074H191.718V7.49609Z" fill="#CCCCCC"/>
<path d="M63.1435 5.61413C64.0274 5.61413 64.744 4.89602 64.744 4.01019C64.744 3.12436 64.0274 2.40625 63.1435 2.40625C62.2595 2.40625 61.543 3.12436 61.543 4.01019C61.543 4.89602 62.2595 5.61413 63.1435 5.61413Z" fill="#CCCCCC"/>
<path d="M67.7451 5.61413C68.629 5.61413 69.3456 4.89602 69.3456 4.01019C69.3456 3.12436 68.629 2.40625 67.7451 2.40625C66.8611 2.40625 66.1445 3.12436 66.1445 4.01019C66.1445 4.89602 66.8611 5.61413 67.7451 5.61413Z" fill="#CCCCCC"/>
<path d="M72.3466 5.61413C73.2306 5.61413 73.9471 4.89602 73.9471 4.01019C73.9471 3.12436 73.2306 2.40625 72.3466 2.40625C71.4627 2.40625 70.7461 3.12436 70.7461 4.01019C70.7461 4.89602 71.4627 5.61413 72.3466 5.61413Z" fill="#CCCCCC"/>
<path d="M158.551 19.1699H91.7774C91.0395 19.1699 90.3318 19.4637 89.81 19.9866C89.2882 20.5094 88.9951 21.2186 88.9951 21.9581C88.9951 22.6976 89.2882 23.4068 89.81 23.9296C90.3318 24.4525 91.0395 24.7463 91.7774 24.7463H158.551C159.289 24.7463 159.997 24.4525 160.518 23.9296C161.04 23.4068 161.333 22.6976 161.333 21.9581C161.333 21.2186 161.04 20.5094 160.518 19.9866C159.997 19.4637 159.289 19.1699 158.551 19.1699ZM158.551 24.3173H91.7774C91.153 24.3173 90.5542 24.0688 90.1127 23.6263C89.6712 23.1839 89.4232 22.5838 89.4232 21.9581C89.4232 21.3324 89.6712 20.7323 90.1127 20.2899C90.5542 19.8474 91.153 19.5989 91.7774 19.5989H158.551C159.175 19.5989 159.774 19.8474 160.216 20.2899C160.657 20.7323 160.905 21.3324 160.905 21.9581C160.905 22.5838 160.657 23.1839 160.216 23.6263C159.774 24.0688 159.175 24.3173 158.551 24.3173Z" fill="#CCCCCC"/>
<path d="M178.983 41.3828H112.209C111.471 41.3828 110.763 41.6766 110.242 42.1995C109.72 42.7223 109.427 43.4315 109.427 44.171C109.427 44.9105 109.72 45.6196 110.242 46.1425C110.763 46.6654 111.471 46.9592 112.209 46.9592H178.983C179.72 46.9592 180.428 46.6654 180.95 46.1425C181.472 45.6196 181.765 44.9105 181.765 44.171C181.765 43.4315 181.472 42.7223 180.95 42.1995C180.428 41.6766 179.72 41.3828 178.983 41.3828Z" fill="white"/>
<path d="M178.983 51.6777H112.209C111.471 51.6777 110.763 51.9715 110.242 52.4944C109.72 53.0173 109.427 53.7264 109.427 54.4659C109.427 55.2054 109.72 55.9146 110.242 56.4375C110.763 56.9603 111.471 57.2541 112.209 57.2541H178.983C179.72 57.2541 180.428 56.9603 180.95 56.4375C181.472 55.9146 181.765 55.2054 181.765 54.4659C181.765 53.7264 181.472 53.0173 180.95 52.4944C180.428 51.9715 179.72 51.6777 178.983 51.6777Z" fill="white"/>
<path d="M178.983 61.9727H112.209C111.471 61.9727 110.763 62.2664 110.242 62.7893C109.72 63.3122 109.427 64.0214 109.427 64.7608C109.427 65.5003 109.72 66.2095 110.242 66.7324C110.763 67.2553 111.471 67.549 112.209 67.549H178.983C179.72 67.549 180.428 67.2553 180.95 66.7324C181.472 66.2095 181.765 65.5003 181.765 64.7608C181.765 64.0214 181.472 63.3122 180.95 62.7893C180.428 62.2664 179.72 61.9727 178.983 61.9727Z" fill="white"/>
<path d="M101.418 36.772H71.0236C70.3716 36.7727 69.7466 37.0326 69.2856 37.4946C68.8246 37.9566 68.5652 38.5829 68.5645 39.2363V48.9284H68.9925V39.2363C68.9933 38.6967 69.2076 38.1795 69.5883 37.798C69.969 37.4164 70.4852 37.2017 71.0236 37.2009H101.418C101.957 37.2014 102.473 37.416 102.854 37.7976C103.235 38.1792 103.449 38.6966 103.449 39.2363V69.6961C103.449 70.2358 103.235 70.7532 102.854 71.1348C102.473 71.5164 101.957 71.731 101.418 71.7315H92.9925V72.1604H101.418C102.07 72.16 102.696 71.9002 103.157 71.4382C103.618 70.9761 103.877 70.3495 103.877 69.6961V39.2363C103.877 38.5828 103.618 37.9563 103.157 37.4942C102.696 37.0322 102.07 36.7724 101.418 36.772Z" fill="#CCCCCC"/>
<path d="M22.605 68.1103C22.4975 68.1147 17.9158 67.7963 17.7988 67.7924L18.2104 63.675L20.82 63.5963L25.8066 54.3405C25.115 53.0189 25.9661 51.2653 27.4332 50.995C30.3896 50.3216 31.4052 54.9829 28.4398 55.6031L24.3152 66.9131C24.1858 67.2635 23.9527 67.5659 23.647 67.7799C23.3414 67.9939 22.9778 68.1091 22.605 68.1103Z" fill="#FFB8B8"/>
<path d="M10.5267 70.2313C6.16686 70.242 5.78413 63.6388 10.1537 63.1735C21.7082 62.4738 20.246 59.5656 21.1235 68.144C21.1504 68.3984 21.0755 68.6532 20.9152 68.8524C20.755 69.0516 20.5224 69.1789 20.2685 69.2064L10.9052 70.2109C10.7795 70.2244 10.6532 70.2312 10.5267 70.2313Z" fill="#C8B65E"/>
<path d="M9.53106 49.3538C15.5374 52.7789 10.6065 61.8161 4.48821 58.5981C-1.51792 55.173 3.41297 46.1358 9.53106 49.3538Z" fill="#FFB8B8"/>
<path d="M14.9916 127.146L17.6153 127.146L18.8637 117.003L14.9912 117.004L14.9916 127.146Z" fill="#FFB8B8"/>
<path d="M14.4298 129.588L22.6761 129.587C22.6446 125.323 17.1291 126.552 14.4297 126.395L14.4298 129.588Z" fill="#2F2E41"/>
<path d="M3.64887 127.146L6.27251 127.146L7.52088 117.003L3.64844 117.004L3.64887 127.146Z" fill="#FFB8B8"/>
<path d="M3.08706 129.588L11.3333 129.587C11.3018 125.323 5.78637 126.552 3.08691 126.395L3.08706 129.588Z" fill="#2F2E41"/>
<path d="M6.63043 123.604C5.99629 123.429 2.55043 123.957 2.14375 123.264C0.72353 108.999 1.03923 95.0389 4.19185 87.3676L15.0315 86.7026C17.4554 91.137 23.0272 120.563 19.6662 122.352L15.3442 122.506C15.0978 122.514 14.8561 122.437 14.6597 122.288C14.4633 122.138 14.3242 121.926 14.2657 121.686L10.65 101.071C9.74953 99.8097 7.97959 122.781 7.6873 122.695C7.64919 122.949 7.52147 123.18 7.32745 123.346C7.13343 123.513 6.88604 123.605 6.63043 123.604Z" fill="#2F2E41"/>
<path d="M3.84806 89.1708C-1.62472 83.4329 1.86617 68.0496 1.68949 68.3767C1.70448 67.9999 2.94406 62.1964 6.15058 61.244C8.69455 60.4026 11.5103 62.9194 11.8576 65.4649L15.6685 88.0177C15.6882 88.1405 15.6788 88.2662 15.6411 88.3847C15.6035 88.5031 15.5385 88.6111 15.4515 88.6998C15.6389 89.2845 4.11598 89.0536 3.84806 89.1708Z" fill="#C8B65E"/>
<path d="M5.62397 53.39C6.10459 53.0855 6.34147 52.5633 6.62122 52.0876C8.09483 51.2459 9.78885 53.2819 11.3475 52.5221C15.7547 48.2821 11.2246 47.0312 7.16546 46.8076C6.20658 46.6892 5.39088 47.0301 4.66592 47.5931C-3.4423 46.9725 0.446289 57.7769 5.56356 59.204C6.46706 59.6006 7.14482 58.7979 6.34804 58.0682C5.24566 56.91 3.88007 54.5787 5.62397 53.39Z" fill="#2F2E41"/>
<path d="M89.7822 48.4995H31.1412C30.1767 48.5009 29.2521 48.8855 28.5701 49.5689C27.8881 50.2524 27.5043 51.179 27.5029 52.1456V126.354C27.5043 127.321 27.8881 128.247 28.5701 128.931C29.2521 129.614 30.1767 129.999 31.1412 130H89.7822C90.7467 129.999 91.6713 129.614 92.3533 128.931C93.0353 128.247 93.4191 127.321 93.4205 126.354V52.1456C93.4191 51.179 93.0353 50.2524 92.3533 49.5689C91.6713 48.8855 90.7467 48.5009 89.7822 48.4995ZM92.9924 126.354C92.9914 127.207 92.6529 128.025 92.051 128.628C91.4492 129.231 90.6333 129.57 89.7822 129.571H31.1412C30.2901 129.57 29.4742 129.231 28.8724 128.628C28.2706 128.025 27.932 127.207 27.931 126.354V52.1456C27.932 51.2927 28.2706 50.475 28.8724 49.8719C29.4742 49.2688 30.2901 48.9295 31.1412 48.9285H89.7822C90.6333 48.9295 91.4492 49.2688 92.051 49.8719C92.6529 50.475 92.9914 51.2927 92.9924 52.1456V126.354Z" fill="#3F3D56"/>
<path d="M14.6188 79.7265C12.6861 79.9459 11.8376 75.4387 11.0986 74.2902L14.9477 72.7925L16.2002 75.088L26.6931 75.3494C26.7554 75.2647 26.8235 75.1845 26.8969 75.1092C28.9778 72.9257 32.3666 76.1973 30.2936 78.3761C30.0649 78.6196 29.7872 78.8118 29.479 78.94C29.1708 79.0682 28.8389 79.1295 28.5054 79.1199C28.1718 79.1102 27.844 79.0298 27.5437 78.8839C27.2434 78.7381 26.9773 78.5301 26.763 78.2738C26.5039 78.2923 14.8722 79.7333 14.6188 79.7265Z" fill="#FFB8B8"/>
<path d="M11.7683 77.5752C11.1248 78.1965 6.18442 69.4737 5.82349 69.2272C3.32711 65.3388 9.20405 61.4997 11.7434 65.367L16.8792 73.2767C17.0183 73.4913 17.0666 73.7524 17.0138 74.0027C16.9609 74.253 16.8111 74.4721 16.5973 74.6119C16.3632 74.7217 11.9335 77.8114 11.7683 77.5752Z" fill="#C8B65E"/>
<path d="M78.2252 99.8664H42.6982C39.0691 99.8489 39.054 94.309 42.6983 94.29H78.2252C81.8517 94.3071 81.8714 99.8474 78.2252 99.8664Z" fill="#CCCCCC"/>
<path d="M78.2252 110.161H42.6982C39.0691 110.143 39.054 104.603 42.6983 104.584H78.2252C81.8517 104.601 81.8714 110.142 78.2252 110.161Z" fill="#CCCCCC"/>
<path d="M78.2252 120.456H42.6982C39.0691 120.438 39.054 114.898 42.6983 114.879H78.2252C81.8517 114.896 81.8714 120.437 78.2252 120.456Z" fill="#CCCCCC"/>
<path d="M91.4942 55.3627C90.3936 55.3627 89.3178 55.0356 88.4027 54.4229C87.4876 53.8102 86.7744 52.9393 86.3533 51.9203C85.9321 50.9014 85.8219 49.7801 86.0366 48.6984C86.2513 47.6167 86.7813 46.6231 87.5595 45.8432C88.3377 45.0634 89.3292 44.5323 90.4086 44.3171C91.488 44.1019 92.6068 44.2124 93.6236 44.6344C94.6404 45.0565 95.5094 45.7712 96.1208 46.6883C96.7323 47.6053 97.0586 48.6834 97.0586 49.7863C97.057 51.2648 96.4702 52.6822 95.427 53.7276C94.3838 54.773 92.9694 55.361 91.4942 55.3627Z" fill="#C8B65E"/>
<path d="M94.0633 49.5717H91.7091V46.8907C91.7091 46.8339 91.6866 46.7793 91.6465 46.7391C91.6063 46.6989 91.5519 46.6763 91.4951 46.6763C91.4384 46.6763 91.3839 46.6989 91.3438 46.7391C91.3036 46.7793 91.2811 46.8339 91.2811 46.8907V49.5717H88.9269C88.8701 49.5717 88.8157 49.5943 88.7756 49.6345C88.7354 49.6747 88.7129 49.7293 88.7129 49.7862C88.7129 49.843 88.7354 49.8976 88.7756 49.9378C88.8157 49.978 88.8701 50.0006 88.9269 50.0006H91.2811V52.6816C91.2811 52.7385 91.3036 52.793 91.3438 52.8332C91.3839 52.8735 91.4384 52.8961 91.4951 52.8961C91.5519 52.8961 91.6063 52.8735 91.6465 52.8332C91.6866 52.793 91.7091 52.7385 91.7091 52.6816V50.0006H94.0633C94.1201 50.0006 94.1745 49.978 94.2147 49.9378C94.2548 49.8976 94.2774 49.843 94.2774 49.7862C94.2774 49.7293 94.2548 49.6747 94.2147 49.6345C94.1745 49.5943 94.1201 49.5717 94.0633 49.5717Z" fill="white"/>
<path d="M77.5838 87.5983H43.3409C42.4046 87.5973 41.507 87.2241 40.845 86.5606C40.183 85.8972 39.8106 84.9977 39.8096 84.0595V64.8426C39.8106 63.9043 40.183 63.0048 40.845 62.3414C41.507 61.678 42.4046 61.3048 43.3409 61.3037H77.5838C78.52 61.3048 79.4176 61.678 80.0796 62.3414C80.7416 63.0048 81.114 63.9043 81.1151 64.8426V84.0595C81.114 84.9977 80.7416 85.8972 80.0796 86.5606C79.4176 87.2241 78.52 87.5973 77.5838 87.5983Z" fill="#C8B65E"/>
</g>
<defs>
<clipPath id="clip0_268_1409">
<rect width="191.987" height="130" fill="white"/>
</clipPath>
</defs>
</svg>
