<svg width="186" height="130" viewBox="0 0 186 130" fill="none" xmlns="http://www.w3.org/2000/svg">
<g clip-path="url(#clip0_268_1362)">
<path d="M163.879 126.732L160.775 126.732L159.298 114.746L163.88 114.746L163.879 126.732Z" fill="#FFB8B8"/>
<path d="M164.671 129.744L154.66 129.744V129.617C154.66 128.583 155.071 127.591 155.801 126.859C156.532 126.128 157.523 125.717 158.557 125.717H158.557L164.671 125.717L164.671 129.744Z" fill="#2F2E41"/>
<path d="M177.581 119.092L175.566 121.456L165.498 114.8L168.472 111.312L177.581 119.092Z" fill="#FFB8B8"/>
<path d="M180.384 120.445L173.886 128.067L173.79 127.984C173.004 127.313 172.517 126.357 172.435 125.325C172.353 124.294 172.684 123.273 173.355 122.486L173.355 122.486L177.324 117.831L180.384 120.445Z" fill="#2F2E41"/>
<path d="M141.835 67.7849L140.868 76.7061L179.935 76.1484L162.898 48.3615L148.987 47.8613L141.835 67.7849Z" fill="#2F2E41"/>
<path opacity="0.28" d="M141.835 67.7849L140.868 76.7061L179.935 76.1484L162.898 48.3615L148.987 47.8613L141.835 67.7849Z" fill="black"/>
<path d="M149.517 69.3165L148.138 77.4794V84.7758L159.258 88.409C159.258 88.409 157.956 116.749 159.691 118.555L159.649 122.912L164.5 123.133L164.539 120.066L166.596 97.1438L167.807 80.3143L165.843 67.5547L149.517 69.3165Z" fill="#2F2E41"/>
<path d="M158.132 76.3428L148.138 84.7754C148.138 84.7754 147.553 99.9895 149.038 101.774C150.314 103.306 166.907 116.524 166.907 116.524C166.907 116.524 169.857 119.232 171.509 119.275C173.162 119.318 175.084 115.849 175.084 115.849L171.257 112.938C171.257 112.938 161.341 103.673 158.397 99.9895C157.208 98.5027 157.208 98.354 157.208 98.354L157.614 92.1709L161.699 80.6957L158.132 76.3428Z" fill="#2F2E41"/>
<path d="M147.521 35.9509L143.212 35.5522L139.304 36.2042L131.027 36.2069L130.322 42.2112L137.875 43.9029L139.716 43L147.388 45.926L147.521 35.9509Z" fill="#2F2E41"/>
<path d="M152.668 35.9323C152.668 35.9323 161.813 35.0746 163.893 36.7101C165.973 38.3456 170.429 70.7587 170.429 70.7587L152.668 71.7621L149.484 69.5693L150.388 53.3873L152.668 35.9323Z" fill="#CCCCCC"/>
<path d="M155.46 35.73L145.372 35.9516L135.967 78.4898L143.394 80.1255L155.46 35.73Z" fill="#2F2E41"/>
<path d="M162.631 35.3706L170.577 37.86L170.126 55.3376L179.935 76.2334L168.403 77.4493L159.288 54.8858L162.631 35.3706Z" fill="#2F2E41"/>
<path d="M175.734 78.3558C176.012 78.1104 176.234 77.8067 176.382 77.4663C176.531 77.1259 176.603 76.7571 176.594 76.3857C176.585 76.0143 176.495 75.6494 176.329 75.3168C176.164 74.9842 175.928 74.6919 175.638 74.4605L177.236 68.8784L174.084 67.0786L171.937 74.9934C171.581 75.5074 171.426 76.1343 171.501 76.7552C171.576 77.3762 171.876 77.9481 172.343 78.3625C172.811 78.777 173.415 79.0052 174.04 79.004C174.665 79.0028 175.268 78.7721 175.734 78.3558Z" fill="#FFB8B8"/>
<path d="M165.972 38.3452L170.674 37.937C170.674 37.937 174.895 42.3561 175.855 45.7776C176.815 49.1992 177.855 59.9044 177.855 59.9044L177.421 75.5651L171.925 71.8293L171.557 58.359L165.972 38.3452Z" fill="#2F2E41"/>
<path d="M164.838 30.4739C166.603 27.2409 165.416 23.1873 162.187 21.42C158.957 19.6527 154.907 20.8409 153.141 24.0739C151.376 27.3069 152.563 31.3604 155.793 33.1277C159.023 34.8951 163.072 33.7069 164.838 30.4739Z" fill="#FFB8B8"/>
<path d="M158.246 24.4887C157.372 24.2864 156.464 24.5106 155.579 24.6559C154.693 24.8012 153.717 24.849 152.968 24.3544C152.414 23.9891 152.074 23.3847 151.755 22.8034C151.621 22.5958 151.532 22.3628 151.494 22.1191C151.456 21.6891 151.729 21.2969 152.019 20.9776C153.367 19.4948 155.337 18.6832 157.323 18.4254C158.961 18.181 160.634 18.3856 162.165 19.0173C163.673 19.6792 164.969 20.8913 165.562 22.4287C165.835 23.2155 166.005 24.0343 166.069 24.8648C166.159 25.4759 166.17 26.0958 166.103 26.7098C166.023 27.1649 165.904 27.6122 165.746 28.0464L164.764 31.0141C164.694 31.2946 164.562 31.5559 164.378 31.7791C164.284 31.8885 164.156 31.9643 164.015 31.9952C163.874 32.0261 163.727 32.0105 163.596 31.9507C163.674 31.6283 163.686 31.2933 163.631 30.9662C163.6 30.8031 163.521 30.653 163.405 30.5352C163.288 30.4174 163.139 30.3373 162.976 30.3051C162.614 30.2667 162.305 30.5475 161.962 30.6685C161.805 30.7151 161.64 30.7303 161.477 30.7132C161.314 30.6961 161.156 30.647 161.012 30.5687C160.868 30.4905 160.741 30.3846 160.637 30.2571C160.534 30.1297 160.457 29.9831 160.411 29.8259C160.401 29.7942 160.393 29.7621 160.386 29.7297C160.332 29.3905 160.423 29.0272 160.295 28.7086C160.144 28.3353 159.745 28.1397 159.445 27.8715C159.171 27.6187 158.975 27.293 158.88 26.9326C158.785 26.5723 158.795 26.1922 158.908 25.8372C158.989 25.5902 159.215 25.4779 159.17 25.1942C159.111 24.822 158.562 24.5617 158.246 24.4887Z" fill="#2F2E41"/>
<path d="M84.1462 52.6898H0V0H84.1462V52.6898Z" fill="white"/>
<path d="M84.1462 52.6898H0V0H84.1462V52.6898ZM0.38423 52.3052H83.762V0.384598H0.38423V52.3052Z" fill="#3F3D56"/>
<path d="M73.8685 125.667H25.8398V72.9775H73.8685V125.667Z" fill="white"/>
<path d="M73.8685 125.667H25.8398V72.9775H73.8685V125.667ZM26.2241 125.283H73.4843V73.3621H26.2241V125.283Z" fill="#3F3D56"/>
<path d="M67.3366 120.691H57.3467V121.096H67.3366V120.691Z" fill="#3F3D56"/>
<path d="M67.3366 121.907H57.3467V122.312H67.3366V121.907Z" fill="#3F3D56"/>
<path d="M67.3366 123.123H57.3467V123.528H67.3366V123.123Z" fill="#3F3D56"/>
<path d="M49.8535 82.3999V86.6305C52.3613 86.6305 54.8128 87.3748 56.8979 88.7694C58.983 90.164 60.6082 92.1462 61.5679 94.4653C62.5276 96.7844 62.7787 99.3362 62.2894 101.798C61.8002 104.26 60.5926 106.522 58.8193 108.297L61.8079 111.288C64.1723 108.921 65.7824 105.906 66.4348 102.624C67.0871 99.3409 66.7523 95.9384 65.4727 92.8463C64.1931 89.7541 62.0262 87.1112 59.246 85.2518C56.4658 83.3924 53.1972 82.3999 49.8535 82.3999Z" fill="#E6E6E6"/>
<path d="M61.8079 111.288L58.8193 108.296C56.6515 110.467 53.7713 111.777 50.7123 111.985C47.6533 112.192 44.6228 111.283 42.1822 109.425L39.624 112.795C42.8787 115.271 46.9196 116.482 50.9983 116.205C55.077 115.928 58.9172 114.181 61.8079 111.288Z" fill="#575A89"/>
<path d="M37.1738 99.3222C37.1738 97.6555 37.5018 96.0051 38.139 94.4653C38.7762 92.9254 39.7101 91.5263 40.8876 90.3478C42.065 89.1692 43.4627 88.2344 45.0011 87.5966C46.5395 86.9587 48.1883 86.6305 49.8534 86.6305V82.3999C46.3143 82.3999 42.8644 83.5116 39.99 85.5783C37.1157 87.645 34.9618 90.5626 33.8319 93.9197C32.7021 97.2768 32.6533 100.904 33.6924 104.291C34.7315 107.677 36.8062 110.651 39.6239 112.795L42.1821 109.426C40.6245 108.243 39.3617 106.715 38.4928 104.963C37.6238 103.21 37.1724 101.279 37.1738 99.3222Z" fill="#C8B65E"/>
<path d="M144.951 92.9765H96.9219V40.2866H144.951V92.9765Z" fill="white"/>
<path d="M144.951 92.9765H96.9219V40.2866H144.951V92.9765ZM97.3061 92.5919H144.566V40.6712H97.3061V92.5919Z" fill="#3F3D56"/>
<path d="M112.483 72.4966H103.838V86.3421H112.483V72.4966Z" fill="#575A89"/>
<path d="M124.97 63.0737H116.325V86.3418H124.97V63.0737Z" fill="#E6E6E6"/>
<path d="M137.458 52.1128H128.812V86.3419H137.458V52.1128Z" fill="#C8B65E"/>
<path d="M140.339 86.7267H101.532V46.5361H101.916V86.342H140.339V86.7267Z" fill="#3F3D56"/>
<path d="M130.984 41.6892C132.445 41.6892 133.63 40.5034 133.63 39.0406C133.63 37.5779 132.445 36.3921 130.984 36.3921C129.523 36.3921 128.338 37.5779 128.338 39.0406C128.338 40.5034 129.523 41.6892 130.984 41.6892Z" fill="#FFB8B8"/>
<path d="M185.352 130H144.118C144.059 130 144.003 129.977 143.962 129.935C143.921 129.894 143.897 129.838 143.897 129.779C143.897 129.721 143.921 129.665 143.962 129.623C144.003 129.582 144.059 129.559 144.118 129.559H185.352C185.41 129.559 185.466 129.582 185.508 129.623C185.549 129.665 185.572 129.721 185.572 129.779C185.572 129.838 185.549 129.894 185.508 129.935C185.466 129.977 185.41 130 185.352 130Z" fill="#CCCCCC"/>
<path d="M72.4607 41.6701H11.6863C11.6358 41.6701 11.5875 41.6501 11.5518 41.6144C11.5161 41.5787 11.4961 41.5302 11.4961 41.4797V12.3227C11.4961 12.2722 11.5161 12.2238 11.5518 12.1881C11.5875 12.1524 11.6358 12.1323 11.6863 12.1323C11.7367 12.1323 11.7851 12.1524 11.8208 12.1881C11.8564 12.2238 11.8765 12.2722 11.8765 12.3227V41.2894H72.4607C72.4858 41.2893 72.5106 41.2941 72.5337 41.3037C72.5569 41.3132 72.5779 41.3272 72.5956 41.3449C72.6134 41.3626 72.6274 41.3836 72.637 41.4067C72.6466 41.4299 72.6516 41.4547 72.6516 41.4797C72.6516 41.5048 72.6466 41.5296 72.637 41.5527C72.6274 41.5759 72.6134 41.5969 72.5956 41.6146C72.5779 41.6323 72.5569 41.6463 72.5337 41.6558C72.5106 41.6653 72.4858 41.6702 72.4607 41.6701Z" fill="#3F3D56"/>
<path d="M24.6704 39.5762H19.1427C18.993 39.5761 18.8495 39.5165 18.7437 39.4106C18.6378 39.3046 18.5783 39.161 18.5781 39.0112V31.3839C18.5783 31.2341 18.6378 31.0905 18.7437 30.9845C18.8495 30.8786 18.993 30.819 19.1427 30.8188H24.6704C24.8201 30.819 24.9636 30.8786 25.0694 30.9845C25.1753 31.0905 25.2348 31.2341 25.235 31.3839V39.0112C25.2348 39.161 25.1753 39.3046 25.0694 39.4106C24.9636 39.5165 24.8201 39.5761 24.6704 39.5762Z" fill="#C8B65E"/>
<path d="M34.7514 39.5762H29.2238C29.0741 39.5761 28.9306 39.5165 28.8247 39.4105C28.7189 39.3046 28.6594 39.161 28.6592 39.0111V24.1496C28.6594 23.9997 28.7189 23.8561 28.8247 23.7502C28.9306 23.6442 29.0741 23.5846 29.2238 23.5845H34.7514C34.9011 23.5846 35.0446 23.6442 35.1505 23.7502C35.2563 23.8561 35.3159 23.9997 35.316 24.1496V39.0111C35.3159 39.161 35.2563 39.3046 35.1505 39.4105C35.0446 39.5165 34.9011 39.5761 34.7514 39.5762Z" fill="#C8B65E"/>
<path d="M44.8315 39.5762H39.3039C39.1542 39.5761 39.0107 39.5165 38.9048 39.4106C38.799 39.3046 38.7394 39.161 38.7393 39.0112V31.3839C38.7394 31.2341 38.799 31.0905 38.9048 30.9845C39.0107 30.8786 39.1542 30.819 39.3039 30.8188H44.8315C44.9812 30.819 45.1247 30.8786 45.2306 30.9845C45.3364 31.0905 45.396 31.2341 45.3961 31.3839V39.0112C45.396 39.161 45.3364 39.3046 45.2306 39.4106C45.1247 39.5165 44.9812 39.5761 44.8315 39.5762Z" fill="#C8B65E"/>
<path d="M54.9116 39.5761H49.3839C49.2377 39.5792 49.0961 39.5242 48.9903 39.4231C48.8844 39.322 48.823 39.183 48.8193 39.0366V21.2681C48.823 21.1217 48.8844 20.9827 48.9903 20.8816C49.0961 20.7805 49.2377 20.7255 49.3839 20.7286H54.9116C55.0579 20.7255 55.1994 20.7805 55.3053 20.8816C55.4111 20.9827 55.4726 21.1217 55.4762 21.2681V39.0366C55.4726 39.183 55.4111 39.322 55.3053 39.4231C55.1994 39.5242 55.0579 39.5792 54.9116 39.5761Z" fill="#C8B65E"/>
<path d="M64.9927 39.576H59.465C59.3153 39.5759 59.1718 39.5163 59.066 39.4103C58.9601 39.3044 58.9006 39.1608 58.9004 39.0109V16.1535C58.9006 16.0036 58.9601 15.86 59.066 15.7541C59.1718 15.6481 59.3153 15.5885 59.465 15.5884H64.9927C65.1423 15.5885 65.2858 15.6481 65.3917 15.7541C65.4975 15.86 65.5571 16.0036 65.5573 16.1535V39.0109C65.5571 39.1608 65.4975 39.3044 65.3917 39.4103C65.2858 39.5163 65.1423 39.5759 64.9927 39.576Z" fill="#C8B65E"/>
<path d="M21.9068 28.534C22.5371 28.534 23.048 28.0226 23.048 27.3918C23.048 26.7609 22.5371 26.2495 21.9068 26.2495C21.2765 26.2495 20.7656 26.7609 20.7656 27.3918C20.7656 28.0226 21.2765 28.534 21.9068 28.534Z" fill="#3F3D56"/>
<path d="M31.9869 21.1092C32.6171 21.1092 33.1281 20.5978 33.1281 19.967C33.1281 19.3361 32.6171 18.8247 31.9869 18.8247C31.3566 18.8247 30.8457 19.3361 30.8457 19.967C30.8457 20.5978 31.3566 21.1092 31.9869 21.1092Z" fill="#3F3D56"/>
<path d="M42.0679 28.534C42.6982 28.534 43.2091 28.0226 43.2091 27.3918C43.2091 26.7609 42.6982 26.2495 42.0679 26.2495C41.4377 26.2495 40.9268 26.7609 40.9268 27.3918C40.9268 28.0226 41.4377 28.534 42.0679 28.534Z" fill="#3F3D56"/>
<path d="M52.148 17.4921C52.7783 17.4921 53.2892 16.9806 53.2892 16.3498C53.2892 15.7189 52.7783 15.2075 52.148 15.2075C51.5178 15.2075 51.0068 15.7189 51.0068 16.3498C51.0068 16.9806 51.5178 17.4921 52.148 17.4921Z" fill="#3F3D56"/>
<path d="M62.2281 13.3041C62.8583 13.3041 63.3693 12.7927 63.3693 12.1618C63.3693 11.5309 62.8583 11.0195 62.2281 11.0195C61.5978 11.0195 61.0869 11.5309 61.0869 12.1618C61.0869 12.7927 61.5978 13.3041 62.2281 13.3041Z" fill="#3F3D56"/>
<path d="M42.0917 27.6479L31.9874 20.0723L22.021 27.5444L21.793 27.2396L31.9874 19.5965L42.0437 27.136L52.0371 16.1898L52.0772 16.1734L62.1574 12.1079L62.2997 12.4613L52.2593 16.5105L42.0917 27.6479Z" fill="#3F3D56"/>
</g>
<defs>
<clipPath id="clip0_268_1362">
<rect width="185.573" height="130" fill="white"/>
</clipPath>
</defs>
</svg>
